<svg version="1.2" xmlns="http://www.w3.org/2000/svg" viewBox="0 0 500 500" width="500" height="500">
	<title>ZLogo</title>
	<style>
		.s0 { opacity: .15;fill: #f40301 } 
		.s1 { opacity: .15;fill: #0002f6 } 
		.s2 { opacity: .19;fill: #01f159 } 
		.s3 { opacity: .22;fill: #0117f5 } 
		.s4 { opacity: .26;fill: #f11f03 } 
		.s5 { opacity: .29;fill: #f40301 } 
		.s6 { opacity: .29;fill: #0103f6 } 
		.s7 { opacity: .36;fill: #02f003 } 
		.s8 { opacity: .44;fill: #0103f6 } 
		.s9 { opacity: .45;fill: #f40301 } 
		.s10 { opacity: .59;fill: #0002f6 } 
		.s11 { opacity: .61;fill: #f40301 } 
		.s12 { opacity: .65;fill: #9ddb03 } 
		.s13 { opacity: .72;fill: #0003f6 } 
		.s14 { opacity: .73;fill: #f40301 } 
		.s15 { opacity: .86;fill: #0002f6 } 
		.s16 { opacity: .87;fill: #f40301 } 
		.s17 { opacity: .92;fill: #01ebaa } 
		.s18 { opacity: .97;fill: #01f307 } 
		.s19 { opacity: .99;fill: #03f602 } 
		.s20 { opacity: .99;fill: #7df402 } 
		.s21 { opacity: .99;fill: #012df5 } 
		.s22 { opacity: .99;fill: #0002f5 } 
		.s23 { opacity: .99;fill: #f40201 } 
		.s24 { opacity: 1;fill: #01c6f5 } 
		.s25 { opacity: 1;fill: #f42e01 } 
		.s26 { opacity: 1;fill: #0063f5 } 
		.s27 { opacity: 1;fill: #f2f301 } 
		.s28 { opacity: 1;fill: #0094f5 } 
		.s29 { opacity: 1;fill: #f4d601 } 
		.s30 { opacity: 1;fill: #f45301 } 
		.s31 { opacity: 1;fill: #f4f401 } 
		.s32 { opacity: 1;fill: #01f4f5 } 
		.s33 { opacity: 1;fill: #f4ba01 } 
		.s34 { opacity: 1;fill: #95f3f5 } 
		.s35 { opacity: 1;fill: #f49301 } 
		.s36 { opacity: 1;fill: #f4f499 } 
		.s37 { opacity: 1;fill: #f3f425 } 
		.s38 { opacity: 1;fill: #63f4f5 } 
		.s39 { opacity: 1;fill: #f4f4c9 } 
		.s40 { opacity: 1;fill: #f4f442 } 
		.s41 { opacity: 1;fill: #f4f465 } 
		.s42 { opacity: 1;fill: #caf4f4 } 
		.s43 { opacity: 1;fill: #26f4f5 } 
		.s44 { opacity: 1;fill: #f47001 } 
		.s45 { opacity: 1;fill: #41f4f5 } 
		.s46 { opacity: 1;fill: #f3f3f4 } 
		.s47 { opacity: 1;fill: #f4f4f5 } 
	</style>
	<g id="Background">
		<path id="Path 0" class="s0" d="m139 247v-3h1v3zm1 3h1v1h-1zm1 3h1v1h-1zm3 4h1v1h-1zm1 1h1v1h-1zm1 1h1v1h-1zm9 6h1v1h-1zm2 1h1v1h-1zm5 3h1v1h-1zm2 1h1v1h-1zm2 1h1v1h-1zm5 3h1v1h-1zm10 7h1v1h-1zm1 1h1v1h-1zm1 1h1v1h-1zm1 1h1v1h-1zm6 10h1v1h-1zm1 3h1v1h-1zm1 3h1v1h-1zm2 7l-1-2h1v1zm-1 8l1-2v1 1zm-31 139h1v1h-1zm2 3h1v1h-1z"/>
		<path id="Path 1" class="s1" d="m329 90h1v1h-1zm-1 4h1v1h-1zm-1 4h1v1h-1zm-1 4h1v1h-1zm-1 4h1v1h-1zm-1 5h1v1h-1zm-1 4h1v1h-1zm-1 4h1v1h-1zm-1 5h1v1h-1zm-1 3h1v1h-1zm-1 5h1v1h-1zm-2 8h1v1h-1zm-1 5h1v1h-1zm-2 8h1v1h-1zm-1 4h1v1h-1zm-1 4h1v1h-1zm-1 5h1v1h-1zm-1 3h1v1h-1zm-1 5h1v1h-1zm-1 4h1v1h-1zm-2 9h1v1h-1zm-2 8h1v1h-1zm-1 4h1v1h-1zm-1 4h1v1h-1zm-1 5h1v1h-1zm-2 9h1v1h-1zm-1 5v-1h1l-1 2zm0 10v-1l1 2h-1zm54 59v-1h1v3h-1v-1zm-1 6h1v1h-1zm-1 2h1v1h-1zm-1 2h1v1h-1zm-2 3h1v1h-1zm-1 1h1v1h-1zm-1 1h1v1h-1zm-1 1h1v1h-1zm-2 2h1v1h-1zm-1 1h1v1h-1zm-1 1h1v1h-1zm-1 1h1v1h-1zm-16 15h1v1h-1zm-1 1h1v1h-1zm-17 16h1v1h-1zm-1 1h1v1h-1zm-1 1h1v1h-1zm-1 1h1v1h-1zm-1 1h1v1h-1zm-14 13h1v1h-1zm-1 1h1v1h-1zm-1 1h1v1h-1zm-17 16h1v1h-1zm-1 1h1v1h-1zm-1 1h1v1h-1zm-2 2h1v1h-1zm-1 1h1v1h-1zm-2 2h1v1h-1zm-10 9h1v1h-1zm-1 1h1v1h-1zm-1 1h1v1h-1zm-1 1h1v1h-1zm-1 1h1v1h-1zm-15 14h1v1h-1zm-1 1h1v1h-1zm-1 1h1v1h-1zm-1 1h1v1h-1zm-1 1h1v1h-1zm-1 1h1v1h-1zm-1 1h1v1h-1zm-1 1h1v1h-1zm-1 1h1v1h-1zm-1 1h1v1h-1zm-9 8h1v1h-1zm-1 1h1v1h-1zm-1 1h1v1h-1zm-1 1h1v1h-1zm-1 1h1v1h-1zm-1 1h1v1h-1zm-1 1h1v1h-1zm-1 1h1v1h-1zm-2 2h1v1h-1zm-12 11h1v1h-1zm-2 2h1v1h-1zm-1 1h1v1h-1z"/>
		<path id="Path 2" class="s2" d="m320 79h1v1h-1z"/>
		<path id="Path 3" class="s3" d="m321 79h1v1h-1z"/>
		<path id="Path 4" class="s4" d="m313 79h1v1h-1z"/>
		<path id="Path 5" class="s5" d="m140 240h1v1h-1zm9 21h1v1h-1zm3 2h1v1h-1zm7 4h1v1h-1zm14 8h1v1h-1zm3 2h1v1h-1zm4 3h1v1h-1zm7 8h1v1h-1zm6 16h1v1h-1zm0 11h1v1h-1zm-1 5h1v1h-1zm-3 13h1v1h-1zm-1 4h1v1h-1zm-1 4h1v1h-1zm-3 13h1v1h-1zm-1 5h1v1h-1zm-2 8h1v1h-1zm-1 4h1v1h-1zm-1 4h1v1h-1zm-1 6l1-2v2zm-1 3h1v1h-1zm-1 4h1v1h-1zm-1 4h1v1h-1zm-1 4h1v1h-1zm-1 5h1v1h-1zm-2 8h1v1h-1zm-1 4h1v1h-1zm-2 9h1v1h-1zm-1 4h1v1h-1zm-1 4h1v1h-1zm-2 10v-2h1v2zm-1 3h1v1h-1zm-1 7v-3h1v3zm0 4v-2h1v2zm6 3h1v1h-1z"/>
		<path id="Path 6" class="s6" d="m329 84v-2l1 2zm0 6v-3h1v3zm-1 3h1v1h-1zm-1 4h1v1h-1zm-1 4h1v1h-1zm-1 4h1v1h-1zm-1 5h1v1h-1zm-1 4h1v1h-1zm-2 9h1v1h-1zm-2 8h1v1h-1zm-1 4h1v1h-1zm-1 4h1v1h-1zm-1 5h1v1h-1zm-1 4h1v1h-1zm-1 4h1v1h-1zm-1 4h1v1h-1zm-2 9h1v1h-1zm-2 8h1v1h-1zm-1 4h1v1h-1zm-1 5h1v1h-1zm-1 4h1v1h-1zm-1 4h1v1h-1zm-1 4h1v1h-1zm-2 8h1v1h-1zm-1 5h1v1h-1zm-1 4h1v1h-1zm-1 5h1v1h-1zm52 80h1v1h-1zm-8 12h1v1h-1zm-19 18h1v1h-1zm-17 16h1v1h-1zm-18 17h1v1h-1zm-1 1h1v1h-1zm-16 15h1v1h-1zm-1 1h1v1h-1zm-1 1h1v1h-1zm-1 1h1v1h-1zm-16 15h1v1h-1zm-1 1h1v1h-1zm-19 18h1v1h-1zm-16 15h1v1h-1zm-1 1h1v1h-1zm-1 1h1v1h-1zm-17 16h1v1h-1zm-1 1h1v1h-1zm-1 1h1v1h-1zm-1 1h1v1h-1zm-1 1h1v1h-1zm-2 2h1v1h-1zm-5 4h1v1h-1zm-2 1h1v1h-1zm-6 1h1v1h-1zm4 0h1v1h-1z"/>
		<path id="Path 7" class="s7" d="m316 79h4-1zm-2 0h1v1h-1zm-137 377h1v1h-1z"/>
		<path id="Path 8" class="s8" d="m324 79v-1h2v1zm5 8v-3h1v3zm-1 5h1v1h-1zm-1 4h1v1h-1zm-1 4h1v1h-1zm-1 4h1v1h-1zm-1 5h1v1h-1zm-1 4h1v1h-1zm-1 5h1v1h-1zm-1 4h1v1h-1zm-1 4h1v1h-1zm-1 4h1v1h-1zm-1 4h1v1h-1zm-1 4h1v1h-1zm-1 5h1v1h-1zm-1 4h1v1h-1zm-1 4h1v1h-1zm-2 9h1v1h-1zm-1 4h1v1h-1zm-1 4h1v1h-1zm-1 4h1v1h-1zm-2 9h1v1h-1zm-1 4h1v1h-1zm-2 8h1v1h-1zm-1 5h1v1h-1zm-2 8h1v1h-1zm-1 4h1v1h-1zm-1 5h1v1h-1zm-1 5h1v1h-1zm0 13h1v1h-1zm1 4h1v1h-1zm1 3h1v1h-1zm34 30h1v1h-1zm14 32h1v1h-1zm-23 23h1v1h-1zm-17 16h1v1h-1zm-2 2h1v1h-1zm-72 68h1v1h-1zm-54 47v-1h3v1z"/>
		<path id="Path 9" class="s9" d="m310 78h1v1h-1zm-170 163h1v1h-1zm0 8h1v1h-1zm1 3h1v1h-1zm1 2h1v1h-1zm6 6h1v1h-1zm3 2h1v1h-1zm3 2h1v1h-1zm2 1h1v1h-1zm5 3h1v1h-1zm2 1h1v1h-1zm5 3h1v1h-1zm2 1h1v1h-1zm9 6h1v1h-1zm6 6h1v1h-1zm3 4h1v1h-1zm1 2h1v1h-1zm1 2h1v1h-1zm1 3h1v1h-1zm1 3h1v1h-1zm1 4h1v1h-1zm0 13h1v1h-1zm-1 7v-2h1v2zm-1 4v-2h1v2zm-1 4v-2h1v2zm-1 3h1v1h-1zm-1 4h1v1h-1zm-1 4h1v1h-1zm-1 4h1v1h-1zm-1 6v-2h1v2zm-1 3h1v1h-1zm-2 8h1v1h-1zm-1 5h1v1h-1zm-2 8h1v1h-1zm-2 9h1v1h-1zm-1 4h1v1h-1zm-1 4h1v1h-1zm-1 4h1v1h-1zm-2 10v-2h1v2zm-1 3h1v1h-1zm-1 4h1v1h-1zm-1 4h1v1h-1zm-1 5h1v1h-1zm-1 4h1v1h-1zm-1 4h1v1h-1zm-1 4h1v1h-1zm-1 5h1v1h-1zm-1 4h1v1h-1zm-1 8v-2h1v2zm1 3h1v1h-1zm2 3v-1h3v1z"/>
		<path id="Path 10" class="s10" d="m322 79h1v1h-1zm6 12h1v1h-1zm-1 4h1v1h-1zm-3 13h1v1h-1zm-1 4h1v1h-1zm-1 5h1v1h-1zm-1 4h1v1h-1zm-1 4h1v1h-1zm-4 17h1v1h-1zm-1 4h1v1h-1zm-1 4h1v1h-1zm-1 5h1v1h-1zm-1 4h1v1h-1zm-1 4h1v1h-1zm-1 4h1v1h-1zm-1 4h1v1h-1zm-1 5h1v1h-1zm-1 4h1v1h-1zm-2 9h1v1h-1zm-2 8h1v1h-1zm-1 4h1v1h-1zm-1 4h1v1h-1zm-1 4h1v1h-1zm-1 5h1v1h-1zm-1 6v-2h1v2zm-1 10v-6h1v6zm1 4h1v1h-1zm1 4h1v1h-1zm7 13h1v1h-1zm17 13h1v1h-1zm2 1h1v1h-1zm7 4h1v1h-1zm5 3h1v1h-1zm11 9h1v1h-1zm3 6h1v1h-1zm0 8h1v1h-1zm-1 3h1v1h-1zm-1 2h1v1h-1z"/>
		<path id="Path 11" class="s11" d="m312 79h1v1h-1zm-36 28h1v1h-1zm-14 13h1v1h-1zm-24 23h1v1h-1zm-1 1h1v1h-1zm-1 1h1v1h-1zm-1 1h1v1h-1zm-13 12h1v1h-1zm-1 1h1v1h-1zm-2 2h1v1h-1zm-2 2h1v1h-1zm-2 2h1v1h-1zm-17 16h1v1h-1zm-1 1h1v1h-1zm-17 16h1v1h-1zm-1 1h1v1h-1zm-16 15h1v1h-1zm-1 1h1v1h-1zm-19 19h1v1h-1zm-2 4h1v1h-1zm24 32h1v1h-1zm26 25h1v1h-1zm1 3h1v1h-1zm1 4h1v1h-1zm1 11v-6h1v6zm-1 6v-2h1v2zm-5 20h1v1h-1zm-1 4h1v1h-1zm-1 4h1v1h-1zm-1 5h1v1h-1zm-1 4h1v1h-1zm-1 4h1v1h-1zm-1 6v-2h1v2zm-1 3h1v1h-1zm-1 3h1v1h-1zm-1 5h1v1h-1zm-1 4h1v1h-1zm-2 9h1v1h-1zm-1 4h1v1h-1zm-1 4h1v1h-1zm-1 4h1v1h-1zm-2 9h1v1h-1zm-1 4h1v1h-1zm-1 6v-2h1v2zm-1 3h1v1h-1zm-1 4h1v1h-1zm-1 4h1v1h-1zm-1 4h1v1h-1zm-2 9h1v1h-1z"/>
		<path id="Path 12" class="s12" d="m313 80h1v1h-1zm-143 377v-1h1 1v1z"/>
		<path id="Path 13" class="s13" d="m328 81h1v1h-1zm-2 18h1v1h-1zm-1 4h1v1h-1zm-1 4h1v1h-1zm-2 9h1v1h-1zm-1 4h1v1h-1zm-2 10l1-2v2zm-1 3h1v1h-1zm-1 5l1-2v2zm-1 3h1v1h-1zm-3 13h1v1h-1zm-2 8h1v1h-1zm-3 13h1v1h-1zm-1 4h1v1h-1zm-1 6l1-2v2zm-2 7h1v1h-1zm-3 12h1v1h-1zm-2 9h1v1h-1zm-2 10h1v1h-1zm0 7h1v1h-1zm1 5h1v1h-1zm2 6h1v1h-1zm1 2h1v1h-1zm1 2h1v1h-1zm1 2h1v1h-1zm1 2h1v1h-1zm1 1h1v1h-1zm4 5h1v1h-1zm4 3h1v1h-1zm3 2h1v1h-1zm3 2h1v1h-1zm2 1h1v1h-1zm7 4h1v1h-1zm2 1h1v1h-1zm10 6h1v1h-1zm3 2h1v1h-1zm4 4h1v1h-1zm2 3h1v1h-1zm1 2h1v1h-1zm1 5v-2h1v2zm0 5v-2h1v2z"/>
		<path id="Path 14" class="s14" d="m308 79h1v1h-1zm-2 1h1v1h-1zm-3 2h1v1h-1zm-6 5h1v1h-1zm-1 1h1v1h-1zm-1 1h1v1h-1zm-1 1h1v1h-1zm-1 1h1v1h-1zm-1 1h1v1h-1zm-1 1h1v1h-1zm-1 1h1v1h-1zm-1 1h1v1h-1zm-3 3h1v1h-1zm-9 8h1v1h-1zm-2 2h1v1h-1zm-1 1h1v1h-1zm-1 1h1v1h-1zm-1 1h1v1h-1zm-1 1h1v1h-1zm-1 1h1v1h-1zm-1 1h1v1h-1zm-1 1h1v1h-1zm-7 6h1v1h-1zm-2 2h1v1h-1zm-1 1h1v1h-1zm-1 1h1v1h-1zm-1 1h1v1h-1zm-1 1h1v1h-1zm-1 1h1v1h-1zm-1 1h1v1h-1zm-1 1h1v1h-1zm-1 1h1v1h-1zm-1 1h1v1h-1zm-1 1h1v1h-1zm-15 14h1v1h-1zm-1 1h1v1h-1zm-15 14h1v1h-1zm-2 2h1v1h-1zm-2 2h1v1h-1zm-1 1h1v1h-1zm-17 16h1v1h-1zm-18 17h1v1h-1zm-1 1h1v1h-1zm-16 15h1v1h-1zm-1 1h1v1h-1zm-18 19h1v1h-1zm-2 8v-2h1v2zm0 5v-2h1v2zm54 57h1v1h-1zm0 7h1v1h-1zm-2 10h1v1h-1zm-1 4h1v1h-1zm-1 4h1v1h-1zm-1 4h1v1h-1zm-2 9h1v1h-1zm-1 4h1v1h-1zm-1 5h1v1h-1zm-1 4h1v1h-1zm-1 4h1v1h-1zm-3 12h1v1h-1zm-1 5h1v1h-1zm-2 8h1v1h-1zm-3 13h1v1h-1zm-2 9v-1h1l-1 2zm-1 4h1v1h-1zm-1 4h1v1h-1zm-3 13h1v1h-1zm-1 4h1v1h-1zm-2 8h1v1h-1z"/>
		<path id="Path 15" class="s15" d="m326 79h1v1h-1zm1 1h1v1h-1zm-30 151h1v1h-1zm1 5h1v1h-1zm1 3h1v1h-1zm9 15h1v1h-1zm2 2h1v1h-1zm1 1h1v1h-1zm3 2h1v1h-1zm3 2h1v1h-1zm9 5h1v1h-1zm7 4h1v1h-1zm2 1h1v1h-1zm9 6h1v1h-1zm2 2h1v1h-1zm5 11h1v1h-1z"/>
		<path id="Path 16" class="s16" d="m302 83h1v1h-1zm-14 13h1v1h-1zm-1 1h1v1h-1zm-2 2h1v1h-1zm-1 1h1v1h-1zm-17 16h1v1h-1zm-1 1h1v1h-1zm-18 17h1v1h-1zm-1 1h1v1h-1zm-15 14h1v1h-1zm-1 1h1v1h-1zm-1 1h1v1h-1zm-18 17h1v1h-1zm-1 1h1v1h-1zm-16 15h1v1h-1zm-1 1h1v1h-1zm-18 17h1v1h-1zm-1 1h1v1h-1zm-1 1h1v1h-1zm-15 14h1v1h-1zm-1 1h1v1h-1zm-14 14h1v1h-1zm-3 6h1v1h-1zm-1 8v-3h1v3zm53 72h1v1h-1zm-1 5h1v1h-1zm-1 4h1v1h-1zm-1 4h1v1h-1zm-1 4h1v1h-1zm-1 4h1v1h-1zm-1 5h1v1h-1zm-1 4h1v1h-1zm-4 17h1v1h-1zm-1 4h1v1h-1zm-1 4h1v1h-1zm-2 8h1v1h-1zm-1 5h1v1h-1zm-1 4h1v1h-1zm-1 4h1v1h-1zm-1 5h1v1h-1zm-1 3h1v1h-1zm-4 18h1v1h-1zm-1 4h1v1h-1zm-3 12h1v1h-1zm-2 9h1v1h-1z"/>
		<path id="Path 17" class="s17" d="m320 80h1v1h-1zm-1 1h1v1h-1zm-4 3h1v1h-1zm-138 369v-1h1v3h-1zm1 3h1v1h-1z"/>
		<path id="Path 18" class="s18" d="m315 79h1v1h-1zm4 2v-2h1v1 1zm-142 374h1v1h-1z"/>
		<path id="Path 19" class="s19" d="m315 80l1-1h3v2l-1 1-1 1-1 1h-1l-1-3v-1zm-140 374l1-1h1v2 1 1h-5v-1l1-1h1z"/>
		<path id="Path 20" class="s20" d="m314 84v-3l1 3zm-139 369h1v1h-1zm-1 1h1v1h-1z"/>
		<path id="Path 21" class="s21" d="m321 80h1v1h-1zm-1 16h1v1h-1zm-1 5h1v1h-1zm-2 8h1v1h-1zm-1 5h1v1h-1zm-1 4h1v1h-1zm-1 5v-1h1l-1 2zm-1 3h1v1h-1zm-1 6v-2h1zm-1 4v-2h1zm-1 2h1v1h-1zm-1 5h1v1h-1zm-1 4h1v1h-1zm-1 4h1v1h-1zm-1 5h1v1h-1zm-2 8h1v1h-1zm-1 4h1v1h-1zm-1 5h1v1h-1zm-1 4h1v1h-1zm-1 4h1v1h-1zm-1 6v-2h1zm-1 3h1v1h-1zm-1 5v-2h1zm-1 3h1v1h-1zm-1 4h1v1h-1zm-1 4h1v1h-1zm-1 5h1v1h-1zm-1 4h1v1h-1zm-1 5h1v1h-1zm0 15v-2l1 2zm53 61h1v1h-1zm-8 12h1v1h-1zm-18 17h1v1h-1zm-13 12h1v1h-1zm-1 1h1v1h-1zm-2 2h1v1h-1zm-1 1h1v1h-1zm-2 2h1v1h-1zm-17 16h1v1h-1zm-1 1h1v1h-1zm-16 15h1v1h-1zm-1 1h1v1h-1zm-1 1h1v1h-1zm-2 2h1v1h-1zm-15 14h1v1h-1zm-1 1h1v1h-1zm-19 18h1v1h-1zm-17 16h1v1h-1zm-1 1h1v1h-1zm-1 1h1v1h-1zm-15 14h1v1h-1zm-1 1h1v1h-1zm-1 1h1v1h-1zm-10 9h1v1h-1z"/>
		<path id="Path 22" class="s22" d="m322 80l1-1h1 2l1 1 1 1 1 1v2 3 3l-1 1v1 1 1l-1 1v1 1 1l-1 1v1 1 1l-1 1v1 1 1l-1 1v1 1 1 1l-1 1v1 1 1l-1 1v1 1 1l-1 1v1 1 1 1l-1 1v1 1 1l-1 2v1 1l-1 1v1 1 1l-1 2v1 1l-1 1v1 1 1 1l-1 1v1 1 1l-1 1v1 1 1l-1 1v1 1 1 1l-1 1v1 1l-1 1v1 1 1 1l-1 1v1 1 1l-1 1v1 1 1l-1 1v1 1 1l-1 1v1 1 1 1l-1 2v1 1 1l-1 1v1 1l-1 1v1 1 1 1l-1 1v1 1 1l-1 1v1 1l-1 1v1 1 1 1l-1 1v1 1 1l-1 1v1 1 1 1l-1 1v2 1 1l-1 1v1 6 1l1 1v1 1 1 1l1 1v1 1l1 1v1l1 1v1l1 1v1l1 1v1l1 1v1l1 1 1 1 1 1 1 1v1l1 1 1 1 1 1 1 1h1l1 1 1 1h1l1 1 1 1h1l1 1h1l1 1h1l1 1h1l1 1 1 1h1l1 1h1l1 1h1l1 1 1 1h1l1 1h1l1 1h1l1 1 1 1h1l1 1 1 1 1 1h1v1l1 1 1 1 1 1v1l1 1v1l1 1v1 1 2l1 1v1l-1 1v2 1 1l-1 1v1l-1 1v1l-1 1v1l-1 1-1 1-1 1-1 1-1 1-1 1-1 1-1 1-1 1-1 1-1 1-1 1-1 1-1 1-1 1-1 1-1 1-1 1-1 1-1 1-1 1-1 1h-1l-1 1-1 1-1 1-1 1-1 1-1 1-1 1-1 1-1 1-1 1-1 1-1 1-1 1-1 1-1 1-1 1h-1l-1 1-1 1-1 1-1 1-1 1-1 1-1 1-1 1-1 1-1 1-1 1-1 1-1 1-1 1-1 1-1 1-1 1-1 1h-1l-1 1-1 1-1 1-1 1-1 1-1 1-1 1-1 1-1 1-1 1-1 1-1 1-1 1-1 1-1 1-1 1h-1l-1 1-1 1-1 1-1 1-1 1-1 1-1 1-1 1-1 1-1 1-1 1-1 1-1 1-1 1-1 1-1 1-1 1-1 1h-1l-1 1-1 1-1 1-1 1-1 1-1 1-1 1-1 1-1 1-1 1-1 1-1 1-1 1-1 1-1 1-1 1-1 1-1 1h-1l-1 1-1 1-1 1-1 1-1 1-1 1-1 1-1 1-1 1-1 1-1 1-1 1-1 1-1 1-1 1-1 1h-1l-1 1-1 1-1 1-1 1-1 1-1 1-1 1-1 1-1 1-1 1-1 1-1 1-1 1-1 1-1 1-1 1-1 1-1 1h-1l-1 1-1 1-1 1-1 1-1 1-1 1-1 1-1 1-1 1-1 1h-1l-1 1h-1l-1 1h-1-3-1v-1h1l1-1 1-1 1-1 1-1 1-1 1-1h1l1-1v-1l1-1h1l1-1 1-1 1-1 1-1 1-1 1-1 1-1 1-1 1-1 1-1 1-1 1-1 1-1 1-1 1-1 1-1h1l1-1 1-1 1-1v-1h1l1-1 1-1 1-1 1-1 1-1 1-1 1-1 1-1 1-1 1-1 1-1 1-1 1-1 1-1h1l1-1 1-1 1-1 1-1 1-1 1-1 1-1 1-1 1-1 1-1 1-1 1-1 1-1 1-1 1-1 1-1 1-1 1-1h1l1-1 1-1 1-1 1-1 1-1 1-1 1-1 1-1 1-1 1-1 1-1 1-1 1-1 1-1 1-1h1l1-1v-1h1l1-1 1-1 1-1 1-1 1-1 1-1 1-1 1-1 1-1 1-1 1-1 1-1 1-1 1-1 1-1 1-1 1-1h1l1-1 1-1 1-1 1-1 1-1 1-1 1-1 1-1 1-1 1-1 1-1 1-1 1-1 1-1h1l1-1v-1l1-1h1l1-1v-1h1l1-1 1-1 1-1 1-1 1-1 1-1 1-1 1-1 1-1 1-1 1-1 1-1 1-1 1-1 1-1h1l1-1 1-1 1-1 1-1 1-1 1-1 1-1 1-1 1-1 1-1 1-1 1-1 1-1 1-1 1-1 1-1 1-1 1-1h1l1-1v-1l1-1 1-1 1-1 1-1 1-1v-1l1-1v-1l1-1v-1l1-1v-1-7l-1-1v-1l-1-1v-1-1l-1-1-1-1-1-1v-1l-1-1-1-1h-1l-1-1-1-1-1-1h-1l-1-1-1-1h-1l-1-1h-1l-1-1h-1l-1-1-1-1h-1l-1-1h-1l-1-1h-1l-1-1h-1l-1-1-1-1h-1l-1-1h-1l-1-1h-1l-1-1-1-1h-1l-1-1-1-1-1-1h-1l-1-1v-1l-1-1-1-1-1-1-1-1v-1l-1-1v-1l-1-1-1-1v-1-1l-1-1v-1l-1-1v-1-1l-1-1v-1-1l-1-2v-1-1-1-6-1-1-1l1-1v-2-1-1l1-1v-1-1-1l1-1v-2-1-1l1-1v-1-1-1l1-1v-1-1-1l1-1v-1-1-1l1-2v-1-1l1-1v-1-1-1l1-2v-1-1-1l1-1v-1-1-1l1-1v-2-1l1-1v-2-1-1l1-1v-1-1-1l1-1v-1-1-1-1l1-1v-1-1l1-1v-1-1-1-1l1-1v-1-1-1l1-1v-1-1-1l1-1v-1-1-1-1l1-1v-1-1l1-2v-2l1-2v-1-1-1l1-1v-1-1l1-2v-1-1-1l1-1v-1-1-1l1-1v-1-2-1l1-1v-1-1-1-1l1-1v-1-1l1-1v-1-1-2l1-1v-1-1-1l1-2v-1-2-5-1-1z"/>
		<path id="Path 23" class="s23" d="m308 80l1-1h1 1 1v1 1l-1 1-1 1h-1l-1 1-1 1-1 1-1 1-1 1-1 1-1 1-1 1-1 1-1 1-1 1-1 1-1 1-1 1-1 1-1 1h-1l-1 1-1 1-1 1-1 1-1 1-1 1-1 1-1 1-1 1-1 1-1 1-1 1-1 1-1 1-1 1-1 1h-1l-1 1-1 1v1h-1l-1 1-1 1-1 1-1 1-1 1-1 1-1 1-1 1-1 1-1 1-1 1-1 1-1 1-1 1-1 1-1 1-1 1h-1l-1 1-1 1-1 1-1 1-1 1-1 1-1 1-1 1-1 1-1 1-1 1-1 1-1 1-1 1-1 1-1 1h-1l-1 1-1 1-1 1-1 1-1 1-1 1-1 1-1 1-1 1-1 1-1 1-1 1-1 1-1 1-1 1-1 1-1 1-1 1h-1l-1 1-1 1-1 1-1 1-1 1-1 1-1 1-1 1-1 1-1 1-1 1-1 1-1 1-1 1-1 1-1 1h-1l-1 1-1 1-1 1-1 1-1 1-1 1-1 1-1 1-1 1-1 1-1 1-1 1-1 1-1 1-1 1-1 1-1 1-1 1-1 1h-1l-1 1-1 1-1 1-1 1-1 1-1 1-1 1-1 1-1 1-1 1-1 1-1 1-1 1-1 1-1 1h-1l-1 1v1h-1l-1 1-1 1-1 1-1 1-1 1-1 1-1 1-1 1-1 1-1 1-1 1-1 1v1l-1 1-1 1v1 1l-1 1v1l-1 1v1 1 2 1 2 1l1 1v1 1l1 1v1l1 1 1 1 1 1 1 1 1 1 1 1 1 1h1l1 1 1 1h1l1 1 1 1h1l1 1h1l1 1 1 1h1l1 1h1l1 1h1l1 1h1l1 1 1 1h1l1 1h1l1 1 1 1h1l1 1 1 1h1l1 1 1 1 1 1h1l1 1 1 1 1 1v1l1 1 1 1 1 1v1l1 1v1l1 1v1l1 1v1 1l1 1v1 1l1 1v2 1l1 1v1 1 1 1 4 1 1 1l-1 1v2 1 1 1l-1 1v1 1 1l-1 1v1 1 1l-1 1v1 1 1 1l-1 1v1 1 1l-1 1v1 1 1l-1 1v1 1 1l-1 1v1 1 1l-1 1v1 2 1l-1 1v1 1 1l-1 1v1 1 1 1l-1 1v1 1 1l-1 1v1 1l-1 1v1 1 1 1l-1 1v1 1 1l-1 1v1 1 1l-1 1v1 1 1 1l-1 1v1 1 1l-1 1v1 1 1l-1 1v1 2l-1 1v1 1 1l-1 1v1 1 1 1l-1 1v1 1 1l-1 1v1 1 1 1l-1 1v1 1 1l-1 1v1 1 1l-1 1v1 1 1l-1 1v1 1 1l-1 1v1 1 1 1l-1 1v1 1 1l-1 1v1 1 1 1 1 2 1 1 1 1l-1 1h-1-3l-1-1v-1l-1-1v-2-2-3l1-1v-1-1-1-1l1-1v-1-2l1-1v-1-1-1l1-1v-1-1-1l1-1v-1-1-1l1-1v-1-1-1l1-1v-2-1-1l1-1v-1-1-1l1-1v-1-1-1l1-2v-2-1l1-1v-1-1l1-1v-1-1-1-1l1-1v-1-1-1l1-1v-1-1-1l1-1v-1-1-1-1l1-1v-1-2l1-1v-1-1-1l1-1v-1-1-1l1-1v-1-1-1l1-1v-2-1-1l1-1v-1-1-1l1-1v-1-1-1l1-1v-1-2l1-1v-1-1-1l1-1v-1-1-1-1l1-1v-1-1-1l1-1v-1-1-1l1-1v-1-2l1-1v-1-2l1-1v-1-2-1l1-1v-2-1-1-1l1-1v-6-1l-1-1v-1-1-1l-1-1v-1-1-1l-1-1v-1-1l-1-1v-1l-1-1v-1l-1-1v-1l-1-1-1-1-1-1v-1l-1-1-1-1-1-1-1-1-1-1-1-1h-1l-1-1-1-1h-1l-1-1-1-1h-1l-1-1-1-1h-1l-1-1h-1l-1-1-1-1h-1l-1-1h-1l-1-1h-1l-1-1h-1l-1-1-1-1h-1l-1-1h-1l-1-1-1-1h-1l-1-1-1-1h-1l-1-1-1-1-1-1-1-1-1-1v-1l-1-1v-1l-1-1v-1-1-2-3-2-1-1l1-1v-1-1l1-1v-1l1-1 1-1v-1l1-1 1-1 1-1 1-1 1-1 1-1 1-1 1-1 1-1 1-1 1-1 1-1h1l1-1 1-1 1-1 1-1 1-1 1-1 1-1 1-1 1-1 1-1 1-1 1-1 1-1 1-1 1-1h1l1-1 1-1 1-1 1-1 1-1 1-1 1-1 1-1 1-1 1-1 1-1 1-1 1-1 1-1 1-1 1-1 1-1 1-1 1-1h1l1-1 1-1 1-1 1-1 1-1 1-1 1-1 1-1 1-1 1-1 1-1 1-1 1-1 1-1 1-1 1-1h1l1-1 1-1 1-1 1-1 1-1 1-1 1-1 1-1 1-1 1-1 1-1 1-1 1-1 1-1 1-1 1-1 1-1 1-1h1l1-1 1-1 1-1 1-1 1-1 1-1 1-1 1-1 1-1 1-1 1-1 1-1 1-1 1-1 1-1 1-1h1l1-1 1-1 1-1 1-1 1-1 1-1 1-1 1-1 1-1 1-1 1-1 1-1 1-1 1-1 1-1 1-1 1-1 1-1h1l1-1 1-1 1-1 1-1 1-1 1-1 1-1 1-1 1-1 1-1 1-1 1-1 1-1 1-1 1-1 1-1 1-1h1l1-1 1-1 1-1 1-1 1-1 1-1 1-1 1-1 1-1 1-1 1-1 1-1 1-1 1-1 1-1 1-1 1-1h1l1-1 1-1 1-1h1l1-1z"/>
		<path id="Path 24" class="s24" d="m321 82h1v1h-1zm0 8l1-2v2zm-2 9l1-2v2zm-26 109h1v1h-1zm-3 23h1v1h-1zm1 5h1v1h-1zm1 3h1v1h-1zm2 5h1v1h-1zm3 5h1v1h-1zm3 4h1v1h-1zm1 1h1v1h-1zm2 2h1v1h-1zm1 1h1v1h-1zm3 2h1v1h-1zm5 3h1v1h-1zm7 4h1v1h-1zm5 3h1v1h-1zm2 1h1v1h-1zm2 1h1v1h-1z"/>
		<path id="Path 25" class="s25" d="m312 80h1v1h-1zm-165 169h1v1h-1zm1 3h1v1h-1zm1 2h1v1h-1zm17 13h1v1h-1zm2 1h1v1h-1zm7 4h1v1h-1zm5 3h1v1h-1zm3 2h1v1h-1zm3 2h1v1h-1zm1 1h1v1h-1zm5 5h1v1h-1zm1 1h1v1h-1zm2 3h1v1h-1zm1 2h1v1h-1zm1 2h1v1h-1zm1 3h1v1h-1zm1 3h1v1h-1zm1 4h1v1h-1zm-16 82h1v1h-1zm-14 70h1v1h-1z"/>
		<path id="Path 26" class="s26" d="m321 81h1v1h-1zm0 12v-2h1zm-1 2h1v1h-1zm-1 5h1v1h-1zm-1 4h1v1h-1zm-1 4h1v1h-1zm-1 5h1v1h-1zm-1 4h1v1h-1zm-1 4h1v1h-1zm-1 4h1v1h-1zm-1 4h1v1h-1zm-3 13h1v1h-1zm-1 4h1v1h-1zm-1 4h1v1h-1zm-1 5h1v1h-1zm-1 4h1v1h-1zm-1 4h1v1h-1zm-1 4h1v1h-1zm-1 6v-2h1v2zm-1 4v-2h1v2zm-1 3h1v1h-1zm-1 4h1v1h-1zm-1 5h1v1h-1zm-1 3h1v1h-1zm-1 5h1v1h-1zm-1 4h1v1h-1zm-1 4h1v1h-1zm-1 6v-2h1v2zm-1 3h1v1h-1zm-1 6v-2h1v2zm-1 10v-6h1v6zm2 8h1v1h-1zm2 5h1v1h-1zm50 52h1v1h-1zm-1 3h1v1h-1zm-1 2h1v1h-1zm-1 2h1v1h-1zm-74 71h1v1h-1zm-1 1h1v1h-1zm-19 18h1v1h-1zm-18 17h1v1h-1zm-1 1h1v1h-1zm-1 1h1v1h-1zm-46 43h1v1h-1z"/>
		<path id="Path 27" class="s27" d="m311 82l1-1h1 1v3 1l-1 1-1 1-1 1-1 1-1 1-1 1-1 1-1 1-1 1-1 1-1 1-1 1-1 1-1 1-1 1-1 1-1 1h-1l-1 1-1 1-1 1-1 1-1 1-1 1h-1l-1-4v-1h1l1-1 1-1 1-1 1-1 1-1 1-1 1-1h1l1-1v-1l1-1 1-1 1-1 1-1 1-1 1-1 1-1 1-1 1-1h1l1-1 1-1zm-157 148h1v1h-1zm39 49h1v1h-1zm4 54h1v1h-1zm-20 85h1v1h-1zm-1 4h1v1h-1zm-3 12h1v1h-1zm6 2l1-2v1 1zm0 2h-3l3-1zm-9 10h1v1h-1z"/>
		<path id="Path 28" class="s28" d="m321 90h1v1h-1zm-2 9h1v1h-1zm-1 4h1v1h-1zm-1 4h1v1h-1zm-1 6v-2h1v2zm-1 3h1v1h-1zm-1 4h1v1h-1zm-1 4h1v1h-1zm-2 10l1-2v2zm-1 3h1v1h-1zm-1 4h1v1h-1zm-1 4h1v1h-1zm-1 4h1v1h-1zm-1 5h1v1h-1zm-2 8h1v1h-1zm-1 4h1v1h-1zm-2 8h1v1h-1zm-1 5h1v1h-1zm-1 4h1v1h-1zm-1 5h1v1h-1zm-2 8h1v1h-1zm-1 4h1v1h-1zm-1 4h1v1h-1zm-2 9h1v1h-1zm-1 4h1v1h-1zm-1 6h1v1h-1zm0 7h1v1h-1zm1 5h1v1h-1zm2 6h1v1h-1zm3 6h1v1h-1zm18 16h1v1h-1zm7 4h1v1h-1zm2 1h1v1h-1zm7 4h1v1h-1zm3 2h1v1h-1zm4 3h1v1h-1zm2 2h1v1h-1zm3 4h1v1h-1zm2 12v-7h1v7z"/>
		<path id="Path 29" class="s29" d="m237 151h1v1h-1zm-1 1h1v1h-1zm-56 53h1v1h-1zm-1 1h1v1h-1zm-15 14h1v1h-1zm-1 1h1v1h-1zm-1 1h1v1h-1zm-10 10h1v1h-1zm-3 5h1v1h-1zm47 100h1v1h-1zm-1 4h1v1h-1zm-3 13h1v1h-1zm-1 4h1v1h-1zm-1 4h1v1h-1zm-1 5h1v1h-1zm-2 8h1v1h-1zm-1 4h1v1h-1zm-1 5h1v1h-1zm-1 4h1v1h-1zm-1 4h1v1h-1zm-4 17h1v1h-1zm-4 17h1v1h-1zm-1 4h1v1h-1zm-2 9h1v1h-1zm-1 4h1v1h-1zm-1 4h1v1h-1z"/>
		<path id="Path 30" class="s30" d="m147 241h1v1h-1zm3 14h1v1h-1zm5 5h1v1h-1zm3 2h1v1h-1zm3 2h1v1h-1zm2 1h1v1h-1zm7 4h1v1h-1zm7 4h1v1h-1zm5 3h1v1h-1zm3 2h1v1h-1zm15 24h1v1h-1zm1 10v-4h1v4zm-1 6v-2h1v2zm-1 4h1v1h-1zm-1 4h1v1h-1zm-1 4h1v1h-1zm-3 13h1v1h-1zm-1 4h1v1h-1zm-1 4h1v1h-1zm-5 21h1v1h-1zm-1 5h1v1h-1zm-1 4h1v1h-1zm-3 13h1v1h-1zm-1 4h1v1h-1zm-1 4h1v1h-1zm-1 4h1v1h-1zm-2 9h1v1h-1z"/>
		<path id="Path 31" class="s31" d="m297 95h1v1h-1zm-11 10l1-1h1l1 4v1l-1 1-1 1-1 1-1 1-1 1-1 1-1 1-1 1-1 1h-1l-1 1-1 1-1 1-1 1-1 1-1 1-1 1-1 1-1 1-1 1-1 1-1 1-1 1-1 1-1 1-1 1-1 1h-1l-1 1-1 1-1 1-1 1-1 1-1 1-1 1-1 1-1 1-1 1-1 1-1 1-1 1-1 1-1 1-1 1h-1l-1 1-1 1-1 1-1 1-1 1-1 1-1 1-1 1-1 1-1 1-1 1-1 1-1 1-1 1-1 1-1 1-1 1-1 1-1 1h-1l-1 1-1 1-1 1-1 1-1 1-1 1-1 1-1 1-1 1-1 1-1 1-1 1-1 1-1 1-1 1-1 1h-1l-1 1-1 1-1 1-1 1-1 1-1 1-1 1-1 1-1 1-1 1-1 1-1 1-1 1-1 1-1 1-1 1-1 1-1 1h-1l-1 1v1h-1l-1 1-1 1-1 1-1 1-1 1-1 1-1 1-1 1-1 1-1 1-1 1-1 1-1 1-1 1-1 1h-1l-1 1-1 1-1 1-1 1-1 1-1 1-1 1-1 1-1 1-1 1-1 1-1 1v1l-1 1-1 1v1 1l-1 1v1 1l-1 1v6 1l1 1v1l1 1v1l1 1v1l1 1 1 1 1 1 1 1 1 1 1 1h1l1 1 1 1h1l1 1 1 1h1l1 1h1l1 1 1 1h1l1 1h1l1 1h1l1 1h1l1 1 1 1h1l1 1h1l1 1 1 1h1l1 1h1l1 1 1 1 1 1h1l1 1 1 1 1 1 1 1 1 1v1l1 1 1 1v1l1 1 1 1v1l1 1v1 1l1 1v1 1l1 1v1 1 1l1 2v2 1 6 1 2l-1 2v1 1 1 1l-1 1v1 1 1l-1 1v2 1l-1 1v1 2l-1 1v1 2l-1 1v1 1 1 1l-1 1v1 1 1l-1 1v1 1 1l-1 1v1 1 1 1l-1 1v1 1 1l-1 1v1 2l-1 1v1 1 1l-1 1v1 2l-1 1v1 1 1 1l-1 1v1 1 1l-1 1v2 1l-1 1v1 1 1l-1 1v1 1 1 1l-1 1v1 1 1l-1 1v2 1l-1 1v1 1 1l-1 1v1 1 1l-1 1v1 1 1 1l-1 1v1 1 1l-1 1v1 1 1l-1 1v1 1 1 1l-1 1v1l-1 1v1 1 1l-1 2v1l-3 1h3v2l-1 1v1 2l-1 1v1 1 3 1 1l-1 1h-1l-1 1-1 1-1 1h-1v-1-1l-1-1v-1-2-1l1-1v-1-1-1-1l1-1v-1-1-1l1-1v-1-1-1-1l1-1v-1-1-1l1-1v-1-1-1l1-1v-1-1-1l1-1v-1-1-1l1-1v-1-1-1-1-1l1-1v-1-1l1-1v-1-1-1-1l1-1v-1-1-1l1-2v-1-1l1-1v-1-1-1l1-1v-1-1-1l1-1v-1-1-1l1-1v-1-1-1-1l1-1v-1-1-1l1-1v-1-1-1-1l1-1v-1-1l1-1v-1-1-1-1l1-1v-1-1-1l1-1v-1-1-1l1-1v-2-1-1l1-1v-1-1-1l1-1v-1-1-1l1-1v-1-1-1l1-1v-1-1-1l1-1v-1-1-1-1l1-1v-1-1-1l1-1v-1-1-1l1-1v-1-1-2-1l1-1v-1-1-4-1-1-1l-1-1v-1-1l-1-2v-1-1l-1-1v-1-1l-1-1v-1l-1-1v-1l-1-1v-1l-1-1-1-1v-1l-1-1-1-1-1-1-1-1-1-1-1-1-1-1-1-1h-1l-1-1-1-1h-1l-1-1h-1l-1-1-1-1h-1l-1-1h-1l-1-1-1-1h-1l-1-1h-1l-1-1h-1l-1-1h-1l-1-1-1-1h-1l-1-1h-1l-1-1-1-1h-1l-1-1-1-1h-1l-1-1-1-1-1-1-1-1v-1l-1-1v-1l-1-1v-1l-1-1v-1-1-2-1-2-1-1-1l1-1v-1l1-1v-1-1l1-1 1-1 1-1v-1h1l1-1v-1l1-1 1-1 1-1 1-1 1-1 1-1h1l1-1 1-1 1-1 1-1 1-1 1-1 1-1 1-1 1-1 1-1 1-1 1-1 1-1 1-1 1-1 1-1h1l1-1 1-1 1-1 1-1 1-1 1-1 1-1 1-1 1-1 1-1 1-1 1-1 1-1 1-1 1-1 1-1 1-1 1-1 1-1 1-1h1l1-1 1-1 1-1 1-1 1-1 1-1 1-1 1-1 1-1 1-1 1-1 1-1 1-1 1-1 1-1 1-1h1l1-1 1-1 1-1 1-1 1-1 1-1 1-1 1-1 1-1 1-1 1-1 1-1 1-1 1-1 1-1 1-1 1-1 1-1h1l1-1 1-1 1-1 1-1 1-1 1-1 1-1 1-1 1-1 1-1 1-1 1-1 1-1 1-1 1-1 1-1h1l1-1 1-1 1-1 1-1 1-1 1-1 1-1 1-1 1-1 1-1 1-1 1-1 1-1 1-1 1-1 1-1 1-1 1-1h1l1-1 1-1 1-1 1-1 1-1 1-1 1-1 1-1 1-1 1-1 1-1 1-1 1-1z"/>
		<path id="Path 32" fill-rule="evenodd" class="s32" d="m319 82l1-1h1v1l1 1v5l-1 2v4l-1 1v2l-1 2v3l-1 1v3l-1 1v3l-1 1v4l-1 1v3l-1 1v3l-1 1v4l-1 1v3l-1 2v2l-1 1v3l-1 1v3l-1 1v3l-1 1v4l-1 1v4l-1 1v2l-1 1v3l-1 1v4l-1 1v2l-1 1v4l-1 1v3l-1 1v4l-1 1v3l-1 1v3l-1 1v3l-1 1v3l-1 1v3l-1 1v4l-1 1v3l-1 1v5l-1 1v8l1 1v4l1 1v2l1 1v1l1 1v2l2 2v1l1 1v1l3 3v1l5 5h1l2 2h1l1 1h1l2 2h1l1 1h1l1 1h1l2 2h1l1 1h1l2 2h1l1 1h1l1 1h1l1 1h1l2 2h1l3 3h1v1l3 3v1l1 1v1l1 1v11l-1 1v1l-1 1v1l-1 1v1l-22 22h-1l-12 12h-1l-1 1v1l-1 1h-1l-19 19h-1l-14 14h-1l-2 2v1h-1l-16 16h-1l-17 17h-1l-18 18h-1l-17 17h-1l-10 10h-1l-2 2h-1v-5l5-5h1l18-18h1l16-16h1l1-1v-1h1l17-17h1l18-18h1l16-16h1l17-17h1l16-16h1l24-24v-1l1-1v-1l1-1v-2l1-2v-5l-1-2v-1l-1-1v-1l-1-1v-1l-8-8h-1l-2-2h-1l-1-1h-1l-1-1h-1l-1-1h-1l-2-2h-1l-1-1h-1l-1-1h-1l-2-2h-1l-1-1h-1l-1-1h-1l-2-2h-1l-2-2h-1l-3-3v-1l-4-4v-1l-1-1v-1l-1-1v-1l-1-1v-2l-1-1v-1l-1-1v-3l-1-1v-14l1-1v-4l1-1v-3l1-1v-4l1-1v-3l1-1v-3l1-1v-3l1-1v-3l1-1v-3l1-1v-4l1-1v-3l1-1v-3l1-1v-3l1-1v-4l1-1v-3l1-1v-3l1-1v-3l1-1v-3l1-1v-4l1-1v-3l1-1v-3l1-1v-4l1-1v-2l1-1v-4l1-1v-3l1-1v-3l1-1v-4l1-1v-3l1-1v-3l1-1v-3l1-1v-3l1-1v-7l3-3zm-2 244h1v1h-1zm-21 20h1v1h-1zm-109 103h1v1h-1z"/>
		<path id="Path 33" class="s33" d="m309 83h1v1h-1zm-1 1h1v1h-1zm-18 17h1v1h-1zm-1 1h1v1h-1zm-15 14h1v1h-1zm-1 1h1v1h-1zm-1 1h1v1h-1zm-18 17h1v1h-1zm-1 1h1v1h-1zm-35 33h1v1h-1zm-1 1h1v1h-1zm-16 15h1v1h-1zm-1 1h1v1h-1zm-19 18h1v1h-1zm-16 15h1v1h-1zm-14 14h1v1h-1zm-4 12h1v1h-1zm54 60h1v1h-1zm0 9h1v1h-1zm-1 6h1v1h-1zm-1 4h1v1h-1zm-1 4h1v1h-1zm-1 4h1v1h-1zm-1 4h1v1h-1zm-1 4h1v1h-1zm-1 5h1v1h-1zm-1 4h1v1h-1zm-4 17h1v1h-1zm-1 4h1v1h-1zm-1 4h1v1h-1zm-1 4h1v1h-1zm-1 5h1v1h-1zm-1 4h1v1h-1zm-1 4h1v1h-1zm-1 5h1v1h-1zm-2 8h1v1h-1zm-3 13h1v1h-1zm-1 4h1v1h-1zm-1 4h1v1h-1zm-3 13h1v1h-1zm-1 4h1v1h-1z"/>
		<path id="Path 34" class="s34" d="m314 90v-3h1v3zm-1 5v-2h1v2zm-1 4v-2h1v2zm-1 3h1v1h-1zm-1 4h1v1h-1zm-1 4h1v1h-1zm-1 5h1v1h-1zm-1 4h1v1h-1zm-1 4h1v1h-1zm-2 8h1v1h-1zm-2 9h1v1h-1zm-1 4h1v1h-1zm-1 4h1v1h-1zm-1 6v-2h1v2zm-1 3h1v1h-1zm-1 4h1v1h-1zm-1 4h1v1h-1zm-1 6v-2h1v2zm-1 4v-2h1v2zm-1 3h1v1h-1zm-1 4h1v1h-1zm-2 9h1v1h-1zm-1 4h1v1h-1zm-1 4h1v1h-1zm-1 4h1v1h-1zm-1 4h1v1h-1zm-1 5h1v1h-1zm-1 4h1v1h-1zm-1 7v-2h1v2zm0 10v-2h1v2zm1 3h1v1h-1zm1 3h1v1h-1zm2 5h1v1h-1zm6 9h1v1h-1zm7 6h1v1h-1zm5 3h1v1h-1zm2 1h1v1h-1zm5 3h1v1h-1zm2 1h1v1h-1zm5 3h1v1h-1zm2 1h1v1h-1zm5 3h1v1h-1zm8 8h1v1h-1zm2 4h1v1h-1z"/>
		<path id="Path 35" class="s35" d="m292 99h1v1h-1zm-1 1h1v1h-1zm-16 15h1v1h-1zm-126 121h1v1h-1zm-1 3h1v1h-1zm-1 6v-2h1v2zm0 3v-2h1v2zm2 5h1v1h-1zm51 49v-2l1 2zm1 4h1v1h-1zm0 7h1v1h-1zm-1 6h1v1h-1zm-6 25h1v1h-1zm-1 4h1v1h-1zm-1 6v-2h1v2zm-1 3h1v1h-1zm-1 4h1v1h-1zm-5 21h1v1h-1zm-3 13h1v1h-1zm-1 6v-2h1zm-1 2h1v1h-1zm-1 5h1v1h-1zm-1 4h1v1h-1zm-4 17h1v1h-1zm-1 4h1v1h-1zm-1 4h1v1h-1zm-1 4h1v1h-1zm-1 5h1v1h-1zm0 8h1v1h-1z"/>
		<path id="Path 36" class="s36" d="m296 102h1v1h-1zm-17 16h1v1h-1zm-18 17h1v1h-1zm-1 1h1v1h-1zm-16 15h1v1h-1zm-20 19h1v1h-1zm-17 16h1v1h-1zm-19 18h1v1h-1zm-29 28h1v1h-1zm-3 5h1v1h-1zm-1 13h1v1h-1zm1 2h1v1h-1zm1 2h1v1h-1zm6 6h1v1h-1zm1 1h1v1h-1zm7 4h1v1h-1zm36 35h1v1h-1zm1 6v-2h1v2zm0 10v-2h1v2zm-1 4h1v1h-1zm-1 4h1v1h-1zm-1 5h1v1h-1zm-1 5v-2h1v2zm-1 4v-2h1v2zm-1 3h1v1h-1zm-1 4h1v1h-1zm-1 4h1v1h-1zm-1 5h1v1h-1zm-1 4h1v1h-1zm-1 6v-2h1v2zm-1 2h1v1h-1zm-1 6v-2h1v2zm-1 3h1v1h-1zm-1 4h1v1h-1zm-1 5h1v1h-1zm-1 4h1v1h-1zm-1 4h1v1h-1zm-1 4h1v1h-1zm-2 8h1v1h-1zm-1 5h1v1h-1zm-1 4h1v1h-1zm-1 4h1v1h-1zm-1 4h1v1h-1zm-1 5h1v1h-1zm-1 4h1v1h-1zm-1 4h1v1h-1zm-1 6v-2h1v2zm-1 4v-2h1zm-1 6v-3h1v3z"/>
		<path id="Path 37" fill-rule="evenodd" class="s37" d="m314 84h1v1h-1zm-160 165h1v1h-1zm19 18h1v1h-1zm2 1h1v1h-1zm7 4h1v1h-1zm2 1h1v1h-1zm3 2h1v1h-1zm2 1h1v1h-1zm3 2h1v1h-1zm8 8h1v1h-1zm2 3h1v1h-1zm6 15l-1-2h1zm-1 14l1-2v2zm-27 113h1v1h-1z"/>
		<path id="Path 38" class="s38" d="m314 90h1v1h-1zm-2 9h1v1h-1zm-1 4h1v1h-1zm-1 4h1v1h-1zm-1 4h1v1h-1zm-1 5h1v1h-1zm-1 4h1v1h-1zm-1 6v-2h1v2zm-1 2h1v1h-1zm-1 6v-2h1v2zm-1 3v-1h1v2h-1zm-1 4h1v1h-1zm-1 4h1v1h-1zm-1 4h1v1h-1zm-1 5h1v1h-1zm-1 4h1v1h-1zm-1 4h1v1h-1zm-1 4h1v1h-1zm-3 13h1v1h-1zm-1 4h1v1h-1zm-1 6v-2h1v2zm-1 3h1v1h-1zm-1 4h1v1h-1zm-1 4h1v1h-1zm-1 4h1v1h-1zm-1 6v-2h1v2zm-1 3h1v1h-1zm-1 4h1v1h-1zm-1 8v-2h1v2zm0 6v-2h1v2zm1 4h1v1h-1zm2 6h1v1h-1zm37 31h1v1h-1zm14 22v-5h1v5zm-1 3h1v1h-1zm-108 106h1v1h-1zm-1 1h1v1h-1zm-21 20h1v1h-1zm-17 16h1v1h-1zm-11 10h1v1h-1zm-1 1h1v1h-1z"/>
		<path id="Path 39" class="s39" d="m314 85h1v1h-1zm-1 1h1v1h-1zm-18 17h1v1h-1zm-1 1h1v1h-1zm-1 1h1v1h-1zm-15 14h1v1h-1zm-1 1h1v1h-1zm-18 17h1v1h-1zm-1 1h1v1h-1zm-1 1h1v1h-1zm-1 1h1v1h-1zm-1 1h1v1h-1zm-12 11h1v1h-1zm-1 1h1v1h-1zm-1 1h1v1h-1zm-1 1h1v1h-1zm-1 1h1v1h-1zm-2 2h1v1h-1zm-2 2h1v1h-1zm-1 1h1v1h-1zm-11 10h1v1h-1zm-1 1h1v1h-1zm-1 1h1v1h-1zm-1 1h1v1h-1zm-1 1h1v1h-1zm-1 1h1v1h-1zm-1 1h1v1h-1zm-2 2h1v1h-1zm-9 8h1v1h-1zm-1 1h1v1h-1zm-1 1h1v1h-1zm-1 1h1v1h-1zm-1 1h1v1h-1zm-1 1h1v1h-1zm-1 1h1v1h-1zm-1 1h1v1h-1zm-1 1h1v1h-1zm-1 1h1v1h-1zm-2 2h1v1h-1zm-8 7h1v1h-1zm-1 1h1v1h-1zm-1 1h1v1h-1zm-1 1h1v1h-1zm-1 1h1v1h-1zm-1 1h1v1h-1zm-1 1h1v1h-1zm-1 1h1v1h-1zm-1 1h1v1h-1zm-9 8h1v1h-1zm-1 1h1v1h-1zm-1 1h1v1h-1zm-1 1h1v1h-1zm-1 1h1v1h-1zm-1 1h1v1h-1zm-1 1h1v1h-1zm-1 1h1v1h-1zm-1 1h1v1h-1zm-1 1h1v1h-1zm-1 1h1v1h-1zm-3 4h1v1h-1zm-2 6v-1h1l-1 2zm0 8h1v1h-1zm11 13h1v1h-1zm41 37h1v1h-1zm1 5v-2l1 2zm0 14v-2h1zm-1 4v-1h1l-1 2zm-1 3h1v1h-1zm-1 5h1v1h-1zm-2 8h1v1h-1zm-1 4h1v1h-1zm-1 4h1v1h-1zm-1 5v-1h1l-1 2zm-1 4h1v1h-1zm-1 4h1v1h-1zm-2 8h1v1h-1zm-1 5h1v1h-1zm-1 4h1v1h-1zm-1 4h1v1h-1zm-1 5h1v1h-1zm-1 4h1v1h-1zm-1 4h1v1h-1zm-1 4h1v1h-1zm-1 4h1v1h-1zm-1 5v-1h1l-1 2zm-1 4h1v1h-1zm-1 4h1v1h-1zm-1 4h1v1h-1zm-1 4h1v1h-1zm-1 5h1v1h-1zm-1 4h1v1h-1zm-1 4h1v1h-1zm-1 5h1v1h-1zm-2 10h1v1h-1z"/>
		<path id="Path 40" class="s40" d="m154 248h1v1h-1zm3 7h1v1h-1zm5 5h1v1h-1zm3 2h1v1h-1zm3 2h1v1h-1zm2 1h1v1h-1zm7 4h1v1h-1zm24 18h1v1h-1zm4 8h1v1h-1zm1 3h1v1h-1zm2 15v-6h1v6zm-1 5h1v1h-1zm-3 13h1v1h-1zm-2 8h1v1h-1zm-3 13h1v1h-1zm-3 13h1v1h-1zm-1 4h1v1h-1zm-1 4h1v1h-1zm-3 13h1v1h-1zm-1 4h1v1h-1zm-4 17h1v1h-1zm-1 4h1v1h-1zm-1 5h1v1h-1zm-1 4h1v1h-1zm-1 4h1v1h-1zm-2 8h1v1h-1zm-1 4h1v1h-1zm-2 9h1v1h-1z"/>
		<path id="Path 41" class="s41" d="m289 108h1v1h-1zm-131 125h1v1h-1zm-2 3h1v1h-1zm-1 3h1v1h-1zm-1 9v-6h1v6zm1 3h1v1h-1zm1 2h1v1h-1zm2 3h1v1h-1zm1 1h1v1h-1zm1 1h1v1h-1zm1 1h1v1h-1zm6 4h1v1h-1zm7 4h1v1h-1zm5 3h1v1h-1zm2 1h1v1h-1zm5 3h1v1h-1zm2 1h1v1h-1zm3 2h1v1h-1zm12 13h1v1h-1zm1 2h1v1h-1zm1 2h1v1h-1zm1 3h1v1h-1zm1 4h1v1h-1zm1 5h1v1h-1zm0 7h1v1h-1zm-1 6h1v1h-1zm-1 4h1v1h-1zm-1 6v-2h1v2zm-2 6h1v1h-1zm-1 5h1v1h-1zm-1 4h1v1h-1zm-1 4h1v1h-1zm-1 5h1v1h-1zm-1 4h1v1h-1zm-1 4h1v1h-1zm-3 13h1v1h-1zm-1 4h1v1h-1zm-1 6v-2h1v2zm-1 3h1v1h-1zm-1 4h1v1h-1zm-1 4h1v1h-1zm-1 6v-2h1v2zm-1 2h1v1h-1zm-1 5h1v1h-1zm-1 4h1v1h-1zm-3 13h1v1h-1zm-1 4h1v1h-1zm-1 4h1v1h-1zm-1 4h1v1h-1zm-1 4h1v1h-1zm-1 5h1v1h-1z"/>
		<path id="Path 42" class="s42" d="m314 86h1v1h-1zm-3 16l1-2v1 1zm-3 13l1-2v1 1zm-5 20h1v1h-1zm-1 4h1v1h-1zm-1 4h1v1h-1zm-2 8h1v1h-1zm-8 36l1-2v1 1zm-8 46h1v1h-1zm1 4h1v1h-1zm2 5h1v1h-1zm2 4h1v1h-1zm1 2h1v1h-1zm3 4h1v1h-1zm5 5h1v1h-1zm6 4h1v1h-1zm5 3h1v1h-1zm2 1h1v1h-1zm7 4h1v1h-1zm5 3h1v1h-1zm2 1h1v1h-1zm3 2h1v1h-1zm8 9h1v1h-1zm1 3h1v1h-1z"/>
		<path id="Path 43" class="s43" d="m314 92h1v1h-1zm-1 4h1v1h-1zm-1 4h1v1h-1zm-1 4h1v1h-1zm-2 9h1v1h-1zm-1 4h1v1h-1zm-1 4h1v1h-1zm-1 5h1v1h-1zm-2 8h1v1h-1zm-1 4h1v1h-1zm-1 4h1v1h-1zm-1 5h1v1h-1zm-1 4h1v1h-1zm-3 12h1v1h-1zm-1 5h1v1h-1zm-1 4h1v1h-1zm-1 4h1v1h-1zm-2 9h1v1h-1zm-1 4h1v1h-1zm-1 4h1v1h-1zm-4 17h1v1h-1zm-1 4h1v1h-1zm-1 5h1v1h-1zm36 97h1v1h-1zm-3 3h1v1h-1zm-1 1h1v1h-1zm-1 1h1v1h-1zm-1 1h1v1h-1zm-1 1h1v1h-1zm-1 1h1v1h-1zm-1 1h1v1h-1zm-8 7h1v1h-1zm-1 1h1v1h-1zm-1 1h1v1h-1zm-1 1h1v1h-1zm-1 1h1v1h-1zm-1 1h1v1h-1zm-1 1h1v1h-1zm-1 1h1v1h-1zm-1 1h1v1h-1zm-1 1h1v1h-1zm-33 31h1v1h-1zm-2 2h1v1h-1zm-35 33h1v1h-1zm-1 1h1v1h-1zm-3 3h1v1h-1zm-15 14h1v1h-1zm-1 1h1v1h-1zm-1 1h1v1h-1zm-17 16h1v1h-1zm-2 2h1v1h-1z"/>
		<path id="Path 44" class="s44" d="m147 242h1v1h-1zm0 6h1v1h-1zm1 3h1v1h-1zm24 19h1v1h-1zm26 25h1v1h-1zm1 3h1v1h-1zm2 9h1v1h-1zm0 5h1v1h-1zm-1 6h1v1h-1zm-1 5h1v1h-1zm-1 4h1v1h-1zm-1 4h1v1h-1zm-1 4h1v1h-1zm-1 4h1v1h-1zm-4 17h1v1h-1zm-1 4h1v1h-1zm-1 5h1v1h-1zm-1 4h1v1h-1zm-1 4h1v1h-1zm-3 13h1v1h-1zm-1 4h1v1h-1zm-4 17h1v1h-1zm-1 4h1v1h-1zm-1 5h1v1h-1zm-1 4h1v1h-1zm-1 4h1v1h-1zm-1 4h1v1h-1zm-1 4h1v1h-1zm-1 4h1v1h-1zm-2 9h1v1h-1z"/>
		<path id="Path 45" class="s45" d="m314 91h1v1h-1zm-1 4h1v1h-1zm-3 13h1v1h-1zm-1 4h1v1h-1zm-4 17h1v1h-1zm-4 17h1v1h-1zm-1 4h1v1h-1zm-1 5h1v1h-1zm-1 4h1v1h-1zm-2 8h1v1h-1zm-1 4h1v1h-1zm-1 4h1v1h-1zm-1 5h1v1h-1zm-1 4h1v1h-1zm-3 13h1v1h-1zm-1 4h1v1h-1zm-1 4h1v1h-1zm-3 13h1v1h-1zm-1 11v-4h1v4zm54 59v-1l1 2h-1zm0 8v-2h1zm-1 2h1v1h-1zm-1 2h1v1h-1zm-1 2h1v1h-1zm-1 1h1v1h-1zm-12 12h1v1h-1zm-2 2h1v1h-1zm-1 1h1v1h-1zm-13 12h1v1h-1zm-1 1h1v1h-1zm-20 19h1v1h-1zm-1 1h1v1h-1zm-2 2h1v1h-1zm-1 1h1v1h-1zm-1 1h1v1h-1zm-1 1h1v1h-1zm-1 1h1v1h-1zm-1 1h1v1h-1zm-7 6h1v1h-1zm-1 1h1v1h-1zm-1 1h1v1h-1zm-1 1h1v1h-1zm-1 1h1v1h-1zm-1 1h1v1h-1zm-1 1h1v1h-1zm-1 1h1v1h-1zm-2 2h1v1h-1zm-19 18h1v1h-1zm-1 1h1v1h-1zm-14 13h1v1h-1zm-1 1h1v1h-1zm-3 3h1v1h-1zm-34 32h1v1h-1zm-1 1h1v1h-1zm-2 2h1v1h-1z"/>
		<path id="Path 46" fill-rule="evenodd" class="s46" d="m312 87h1v1h-1zm-1 1h1l1 5v3l-1 1v3l-1 2v3l-1 1v3l-1 1v3l-1 2v3l-1 1v3l-1 1v4l-1 1v2l-1 1v3l-1 1v2l-1 2v2l-1 2v2l-2 6v1l-1-4-2 3-15 60-4-2-3 3v-21l12-28v-8l-6-4-4-16 5-17 7-7v-1l4-4h1zm-35 33h1v1h-1zm-1 1h1v1h-1zm-4 4h1v1h-1zm-18 17h1v1h-1zm-15 14h1v1h-1zm-6 6h1v1h-1zm-16 15h1v1h-1zm-3 3h1v1h-1zm-17 16h1v1h-1zm-2 2h1v1h-1zm-2 2h1v1h-1zm-14 13h1v1h-1zm-16 44l-3-7 1-8 3-2v-11l7 4 1 6 2-5 5 10 11 4 1-7 18 6v-10l8 4 2-2 4 6-4 14-2-5-7 7-3-2-16 4-1-4-15 7h-1l-1-1v-1l-3-6zm-4-24h1v1h-1zm-1 2h1v1h-1zm-1 2h1v1h-1zm5 20h1v1h-1zm43 76h1v1h-1zm-2 9h1v1h-1zm-5 21h1v1h-1zm-13 55h1v1h-1z"/>
		<path id="Path 47" fill-rule="evenodd" class="s47" d="m312 88l1-1h1v6h-1zm-25 23h1v1h-1zm-1 1h1v1h-1zm-1 1h1v1h-1zm-1 1h1v1h-1zm-1 1h1v1h-1zm-1 1h1v1h-1zm-1 1h1v1h-1zm-1 1h1l-5 17 4 16 6 4v8l-12 28v21l3-3 4 2 15-60 2-3 1 4v4l-1 1v3l-1 1v3l-1 1v3l-1 1v3l-1 1v4l-1 1v3l-1 1v3l-1 2v3l-1 1v3l-1 1v3l-1 1v3l-1 1v3l-1 1v4l-1 1v3l-1 1v4l-1 1v12l1 1v3l1 1v1l1 1v2l1 1v1l1 1v1l1 1v1l3 3v1l6 6h1l2 2h1l2 2h1l1 1h1l2 2h1l1 1h1l1 1h1l1 1h1l2 2h1l1 1h1l2 2h1l1 1h1l2 2h1l5 5v1l1 1v1l1 1v2l1 1v8l-1 1v2l-1 1v1l-2 2v1l-11 11h-1l-15 15h-1l-20 20h-1l-1 1v1l-1 1h-1l-11 11h-1l-1 1v1h-1l-2 2v1h-1l-1 1v1h-1l-20 20h-1l-12 12h-1l-21 21h-1l-16 16h-1l-10 10h-1v-6l1-2v-1l1-1v-4l1-1v-3l1-1v-3l1-1v-4l1-1v-2l1-1v-4l1-1v-3l1-1v-3l1-2v-3l1-1v-3l1-1v-3l1-1v-3l1-1v-3l1-1v-4l1-1v-3l1-1v-3l1-1v-4l1-1v-2l1-1v-4l1-1v-3l1-1v-3l1-2v-3l1-1v-2l1-1v-4l1-1v-3l1-1v-3l1-1v-4l1-1v-2l1-2v-3l1-2v-12l-1-2v-3l-1-1v-1l-1-1v-2l-1-1v-1l-1-1v-1l-2-2v-1l-10-10h-1l-2-2h-1l-1-1h-1l-1-1h-1l-2-2h-1l-1-1h-1l-1-1h-1l-2-2h-1l15-7 1 4 16-4 3 2 7-7 2 5 4-14-4-6-2 2-8-4v10l-18-6-1 7-11-4-5-10-2 5-1-6-7-4v-1l14-14h1l13-13h1l1-1v-1h1l18-18h1l1-1v-1h1l16-16h1l1-1v-1h1l2-2v-1h1l15-15h1l1-1v-1h1l15-15h1l1-1v-1l2-2h1zm22 21l1-2v2zm-1 4l1-2v2zm-1 5l1-3v3zm-1 3l1-3v3zm-137 79h1v11l-3 2-1 8 3 7h-1l-3-3v-1l-1-1v-1l-1-1v-2l-1-1v-6l1-2v-1l1-1v-1l1-1v-1l1-1v-1zm0 28l7 1 3 6h-2l-1-1h-1v-1l-1-1h-1l-2-2h-1l-1-1z"/>
		<path id="Path 48" class="s0" d="m302 82h1v1h-1zm-6 5h1v1h-1zm-1 1h1v1h-1zm-1 1h1v1h-1zm-2 2h1v1h-1zm-16 15h1v1h-1zm-1 1h1v1h-1zm-1 1h1v1h-1zm-1 1h1v1h-1zm-1 1h1v1h-1zm-2 2h1v1h-1zm-2 2h1v1h-1zm-7 6h1v1h-1zm-3 3h1v1h-1zm-2 2h1v1h-1zm-1 1h1v1h-1zm-1 1h1v1h-1zm-1 1h1v1h-1zm-1 1h1v1h-1zm-1 1h1v1h-1zm-1 1h1v1h-1zm-1 1h1v1h-1zm-12 11h1v1h-1zm-2 2h1v1h-1zm-1 1h1v1h-1zm-1 1h1v1h-1zm-1 1h1v1h-1zm-11 10h1v1h-1zm-3 3h1v1h-1zm-2 2h1v1h-1zm-1 1h1v1h-1zm-1 1h1v1h-1zm-1 1h1v1h-1zm-1 1h1v1h-1zm-15 14h1v1h-1zm-1 1h1v1h-1zm-17 16h1v1h-1zm-1 1h1v1h-1zm-1 1h1v1h-1zm-1 1h1v1h-1zm-14 13h1v1h-1zm-1 1h1v1h-1zm-1 1h1v1h-1zm-17 17h1v1h-1zm-3 6h1v1h-1zm52 80h1v1h-1zm-1 5h1v1h-1zm-1 4h1v1h-1zm-1 4h1v1h-1zm-1 4h1v1h-1zm-1 4h1v1h-1zm-1 5h1v1h-1zm-1 4h1v1h-1zm-1 4h1v1h-1zm-1 5h1v1h-1zm-2 8h1v1h-1zm-1 4h1v1h-1zm-1 4h1v1h-1zm-2 9h1v1h-1zm-1 4h1v1h-1zm-1 4h1v1h-1zm-1 4h1v1h-1zm-1 5h1v1h-1zm-1 4h1v1h-1zm-1 4h1v1h-1zm-1 4h1v1h-1zm-1 5h1v1h-1zm-1 4h1v1h-1zm-1 4h1v1h-1zm-1 4h1v1h-1zm-2 8h1v1h-1zm-1 5h1v1h-1zm-1 4h1v1h-1z"/>
		<path id="Path 49" class="s1" d="m299 236h1v1h-1zm1 3h1v1h-1zm5 10h1v1h-1zm1 1h1v1h-1zm8 8h1v1h-1zm10 6h1v1h-1zm2 1h1v1h-1zm7 4h1v1h-1zm2 1h1v1h-1zm13 10h1v1h-1z"/>
		<path id="Path 50" class="s5" d="m309 78h1v1h-1zm2 0h1v1h-1zm-6 2h1v1h-1zm-4 3h1v1h-1zm-8 7h1v1h-1zm-2 2h1v1h-1zm-1 1h1v1h-1zm-1 1h1v1h-1zm-1 1h1v1h-1zm-1 1h1v1h-1zm-1 1h1v1h-1zm-1 1h1v1h-1zm-1 1h1v1h-1zm-1 1h1v1h-1zm-1 1h1v1h-1zm-11 10h1v1h-1zm-2 2h1v1h-1zm-2 2h1v1h-1zm-1 1h1v1h-1zm-1 1h1v1h-1zm-17 16h1v1h-1zm-1 1h1v1h-1zm-1 1h1v1h-1zm-15 14h1v1h-1zm-1 1h1v1h-1zm-19 18h1v1h-1zm-1 1h1v1h-1zm-15 14h1v1h-1zm-1 1h1v1h-1zm-19 18h1v1h-1zm-1 1h1v1h-1zm-15 14h1v1h-1zm-1 1h1v1h-1zm24 144h1v1h-1zm-17 72h1v1h-1z"/>
		<path id="Path 51" class="s6" d="m323 78h1v1h-1zm3 0h1v1h-1zm1 1h1v1h-1zm1 1h1v1h-1zm-27 162h1v1h-1zm1 2h1v1h-1zm6 9h1v1h-1zm1 1h1v1h-1zm1 1h1v1h-1zm1 1h1v1h-1zm6 4h1v1h-1zm5 3h1v1h-1zm9 5h1v1h-1zm5 3h1v1h-1zm2 1h1v1h-1zm3 2h1v1h-1zm3 2h1v1h-1zm1 1h1v1h-1zm1 1h1v1h-1zm1 1h1v1h-1zm2 3h1v1h-1zm1 2h1v1h-1zm1 2h1v1h-1z"/>
		<path id="Path 52" class="s8" d="m303 246h1v1h-1zm1 2h1v1h-1zm3 4h1v1h-1zm5 5h1v1h-1zm3 2h1v1h-1zm3 2h1v1h-1zm2 1h1v1h-1zm7 4h1v1h-1zm2 1h1v1h-1zm6 48h1v1h-1zm-1 1h1v1h-1zm-1 1h1v1h-1zm-1 1h1v1h-1zm-1 1h1v1h-1zm-1 1h1v1h-1zm-1 1h1v1h-1zm-1 1h1v1h-1zm-1 1h1v1h-1zm-1 1h1v1h-1zm-6 5h1v1h-1zm-1 1h1v1h-1zm-1 1h1v1h-1zm-1 1h1v1h-1zm-1 1h1v1h-1zm-1 1h1v1h-1zm-1 1h1v1h-1zm-1 1h1v1h-1zm-1 1h1v1h-1zm-1 1h1v1h-1zm-1 1h1v1h-1zm-1 1h1v1h-1zm-18 17h1v1h-1zm-1 1h1v1h-1zm-9 8h1v1h-1zm-3 3h1v1h-1zm-3 3h1v1h-1zm-1 1h1v1h-1zm-1 1h1v1h-1zm-19 18h1v1h-1zm-16 15h1v1h-1zm-1 1h1v1h-1zm-1 1h1v1h-1zm-1 1h1v1h-1zm-16 15h1v1h-1zm-1 1h1v1h-1zm-17 16h1v1h-1zm-1 1h1v1h-1zm-1 1h1v1h-1zm-11 10h1v1h-1z"/>
		<path id="Path 53" class="s9" d="m307 79h1v1h-1zm-7 5h1v1h-1zm-1 1h1v1h-1zm-18 17h1v1h-1zm-1 1h1v1h-1zm-16 15h1v1h-1zm-19 18h1v1h-1zm-1 1h1v1h-1zm-15 14h1v1h-1zm-1 1h1v1h-1zm-19 18h1v1h-1zm-1 1h1v1h-1zm-1 1h1v1h-1zm-1 1h1v1h-1zm-2 2h1v1h-1zm-11 10h1v1h-1zm-1 1h1v1h-1zm-1 1h1v1h-1zm-1 1h1v1h-1zm-1 1h1v1h-1zm-16 15h1v1h-1zm-1 1h1v1h-1zm-1 1h1v1h-1zm-1 1h1v1h-1zm-1 1h1v1h-1zm-1 1h1v1h-1zm-1 1h1v1h-1zm-1 1h1v1h-1zm-9 8h1v1h-1zm-1 1h1v1h-1zm-1 1h1v1h-1zm-1 1h1v1h-1zm-1 1h1v1h-1zm-1 1h1v1h-1zm-1 1h1v1h-1zm-1 1h1v1h-1zm-1 1h1v1h-1zm-1 1h1v1h-1zm-1 1h1v1h-1zm-1 1h1v1h-1zm-1 1h1v1h-1zm-1 1h1v1h-1zm-2 3h1v1h-1zm-1 2h1v1h-1zm2 18h1v1h-1zm32 21h1v1h-1zm3 2h1v1h-1zm8 8h1v1h-1z"/>
		<path id="Path 54" class="s10" d="m339 273h1v1h-1zm3 2h1v1h-1zm5 28h1v1h-1zm-10 10h1v1h-1zm-1 1h1v1h-1zm-35 33h1v1h-1zm-1 1h1v1h-1zm-1 1h1v1h-1zm-1 1h1v1h-1zm-1 1h1v1h-1zm-1 1h1v1h-1zm-1 1h1v1h-1zm-1 1h1v1h-1zm-1 1h1v1h-1zm-1 1h1v1h-1zm-7 6h1v1h-1zm-1 1h1v1h-1zm-1 1h1v1h-1zm-1 1h1v1h-1zm-2 2h1v1h-1zm-1 1h1v1h-1zm-2 2h1v1h-1zm-1 1h1v1h-1zm-11 10h1v1h-1zm-2 2h1v1h-1zm-1 1h1v1h-1zm-1 1h1v1h-1zm-1 1h1v1h-1zm-1 1h1v1h-1zm-1 1h1v1h-1zm-1 1h1v1h-1zm-1 1h1v1h-1zm-1 1h1v1h-1zm-6 5h1v1h-1zm-1 1h1v1h-1zm-1 1h1v1h-1zm-1 1h1v1h-1zm-1 1h1v1h-1zm-1 1h1v1h-1zm-1 1h1v1h-1zm-1 1h1v1h-1zm-1 1h1v1h-1zm-1 1h1v1h-1zm-1 1h1v1h-1zm-17 16h1v1h-1zm-2 2h1v1h-1zm-15 14h1v1h-1zm-2 2h1v1h-1zm-1 1h1v1h-1z"/>
		<path id="Path 55" class="s11" d="m304 81h1v1h-1zm-6 5h1v1h-1zm-19 18h1v1h-1zm-1 1h1v1h-1zm-15 14h1v1h-1zm-20 19h1v1h-1zm-1 1h1v1h-1zm-1 1h1v1h-1zm-1 1h1v1h-1zm-1 1h1v1h-1zm-12 11h1v1h-1zm-1 1h1v1h-1zm-1 1h1v1h-1zm-1 1h1v1h-1zm-1 1h1v1h-1zm-3 3h1v1h-1zm-15 14h1v1h-1zm-2 2h1v1h-1zm-1 1h1v1h-1zm-1 1h1v1h-1zm-1 1h1v1h-1zm-1 1h1v1h-1zm-11 10h1v1h-1zm-1 1h1v1h-1zm-1 1h1v1h-1zm-1 1h1v1h-1zm-1 1h1v1h-1zm-1 1h1v1h-1zm-1 1h1v1h-1zm-1 1h1v1h-1zm-16 15h1v1h-1zm-1 1h1v1h-1zm-17 46h1v1h-1zm11 7h1v1h-1zm14 8h1v1h-1zm15 13h1v1h-1zm-23 169h1v1h-1z"/>
		<path id="Path 56" class="s13" d="m314 149h1v1h-1zm-2 9h1v1h-1zm-7 30h1v1h-1zm-2 8h1v1h-1zm-1 4h1v1h-1zm48 97h1v1h-1zm-4 7h1v1h-1zm-1 1h1v1h-1zm-5 5h1v1h-1zm-1 1h1v1h-1zm-1 1h1v1h-1zm-17 16h1v1h-1zm-19 18h1v1h-1zm-16 15h1v1h-1zm-18 17h1v1h-1zm-1 1h1v1h-1zm-1 1h1v1h-1zm-2 2h1v1h-1zm-13 12h1v1h-1zm-21 20h1v1h-1zm-1 1h1v1h-1zm-1 1h1v1h-1zm-1 1h1v1h-1zm-1 1h1v1h-1zm-1 1h1v1h-1zm-1 1h1v1h-1zm-1 1h1v1h-1zm-2 2h1v1h-1zm-7 6h1v1h-1zm-1 1h1v1h-1zm-1 1h1v1h-1zm-1 1h1v1h-1zm-1 1h1v1h-1zm-1 1h1v1h-1zm-1 1h1v1h-1zm-1 1h1v1h-1zm-1 1h1v1h-1zm-2 2h1v1h-1zm-9 8h1v1h-1zm-1 1h1v1h-1zm-1 1h1v1h-1zm-1 1h1v1h-1zm-2 2h1v1h-1zm-1 1h1v1h-1zm-3 2h1v1h-1zm-2 1h1v1h-1z"/>
		<path id="Path 57" class="s14" d="m260 122h1v1h-1zm-119 129h1v1h-1zm1 2h1v1h-1zm2 3h1v1h-1zm1 1h1v1h-1zm1 1h1v1h-1zm4 3h1v1h-1zm3 2h1v1h-1zm2 1h1v1h-1zm5 3h1v1h-1zm2 1h1v1h-1zm5 3h1v1h-1zm2 1h1v1h-1zm5 3h1v1h-1zm3 2h1v1h-1zm4 3h1v1h-1zm1 1h1v1h-1zm1 1h1v1h-1zm1 1h1v1h-1zm1 1h1v1h-1zm4 6h1v1h-1zm1 2h1v1h-1zm2 5h1v1h-1zm1 4h1v1h-1z"/>
		<path id="Path 58" class="s15" d="m328 90h1v1h-1zm-1 4h1v1h-1zm-1 4h1v1h-1zm-1 4h1v1h-1zm-1 4h1v1h-1zm-1 5h1v1h-1zm-1 4h1v1h-1zm-1 4h1v1h-1zm-1 5h1v1h-1zm-2 8h1v1h-1zm-2 8h1v1h-1zm-1 5h1v1h-1zm-2 8h1v1h-1zm-2 8h1v1h-1zm-1 5h1v1h-1zm-1 4h1v1h-1zm-1 4h1v1h-1zm-1 4h1v1h-1zm-3 13h1v1h-1zm-3 12h1v1h-1zm-1 5h1v1h-1zm-1 4h1v1h-1zm-1 5h1v1h-1zm-1 5h1v1h-1zm54 70h1v1h-1zm-2 7h1v1h-1zm-1 2h1v1h-1zm-4 5h1v1h-1zm-1 1h1v1h-1zm-1 1h1v1h-1zm-1 1h1v1h-1zm-17 16h1v1h-1zm-1 1h1v1h-1zm-1 1h1v1h-1zm-15 14h1v1h-1zm-1 1h1v1h-1zm-1 1h1v1h-1zm-1 1h1v1h-1zm-1 1h1v1h-1zm-15 14h1v1h-1zm-1 1h1v1h-1zm-16 15h1v1h-1zm-1 1h1v1h-1zm-1 1h1v1h-1zm-17 16h1v1h-1zm-2 2h1v1h-1zm-17 16h1v1h-1zm-1 1h1v1h-1zm-1 1h1v1h-1zm-15 14h1v1h-1zm-1 1h1v1h-1zm-18 17h1v1h-1zm-1 1h1v1h-1zm-5 5h1v1h-1z"/>
		<path id="Path 59" class="s16" d="m149 260h1v1h-1zm3 2h1v1h-1zm5 3h1v1h-1zm7 4h1v1h-1zm2 1h1v1h-1zm5 3h1v1h-1zm9 6h1v1h-1zm8 9h1v1h-1zm3 6h1v1h-1zm3 11h1v1h-1zm-31 149h1v1h-1zm6 2h1v1h-1z"/>
		<path id="Path 60" class="s17" d="m317 82h1v1h-1zm-1 1h1v1h-1z"/>
		<path id="Path 61" class="s18" d="m318 81h1v1h-1z"/>
		<path id="Path 62" class="s20" d="m176 452h1v1h-1zm-4 3h1v1h-1z"/>
		<path id="Path 63" class="s21" d="m292 237h1v1h-1zm2 5h1v1h-1zm2 4h1v1h-1zm1 2h1v1h-1zm3 4h1v1h-1zm1 1h1v1h-1zm3 3h1v1h-1zm11 7h1v1h-1zm5 3h1v1h-1zm2 1h1v1h-1zm7 4h1v1h-1zm2 1h1v1h-1zm3 2h1v1h-1zm4 3h1v1h-1zm1 1h1v1h-1zm3 4h1v1h-1zm-18 37h1v1h-1zm-4 4h1v1h-1zm-1 1h1v1h-1zm-9 8h1v1h-1zm-3 3h1v1h-1zm-4 4h1v1h-1zm-91 86h1v1h-1zm-1 1h1v1h-1z"/>
		<path id="Path 64" class="s22" d="m313 123h1v1h-1z"/>
		<path id="Path 65" class="s24" d="m320 94h1v1h-1zm-2 8h1v1h-1zm-1 4h1v1h-1zm-1 4h1v1h-1zm-1 5h1v1h-1zm-1 4h1v1h-1zm-4 17h1v1h-1zm-1 4h1v1h-1zm-1 4h1v1h-1zm-1 4h1v1h-1zm-1 5h1v1h-1zm-2 8h1v1h-1zm-1 4h1v1h-1zm-1 5h1v1h-1zm-1 3h1v1h-1zm-1 5h1v1h-1zm-1 4h1v1h-1zm-1 5h1v1h-1zm-1 4h1v1h-1zm-1 4h1v1h-1zm-1 4h1v1h-1zm-1 4h1v1h-1zm-2 9h1v1h-1zm-1 4h1v1h-1zm-1 6h1v1h-1zm12 33h1v1h-1zm40 44h1v1h-1zm-1 2h1v1h-1zm-24 24h1v1h-1zm-1 1h1v1h-1zm-1 1h1v1h-1zm-11 10h1v1h-1zm-3 3h1v1h-1zm-1 1h1v1h-1zm-1 1h1v1h-1zm-1 1h1v1h-1zm-17 16h1v1h-1zm-1 1h1v1h-1zm-14 13h1v1h-1zm-1 1h1v1h-1zm-2 2h1v1h-1zm-1 1h1v1h-1zm-16 15h1v1h-1zm-1 1h1v1h-1zm-17 16h1v1h-1zm-1 1h1v1h-1zm-1 1h1v1h-1zm-17 16h1v1h-1zm-1 1h1v1h-1zm-17 16h1v1h-1zm-1 1h1v1h-1zm-1 1h1v1h-1zm-9 8h1v1h-1z"/>
		<path id="Path 66" class="s25" d="m308 83h1v1h-1zm-1 1h1v1h-1zm-16 15h1v1h-1zm-1 1h1v1h-1zm-1 1h1v1h-1zm-1 1h1v1h-1zm-14 13h1v1h-1zm-1 1h1v1h-1zm-2 2h1v1h-1zm-18 17h1v1h-1zm-1 1h1v1h-1zm-16 15h1v1h-1zm-19 18h1v1h-1zm-1 1h1v1h-1zm-16 15h1v1h-1zm-21 20h1v1h-1zm-15 14h1v1h-1zm-13 13h1v1h-1zm-4 8h1v1h-1zm53 75h1v1h-1zm-1 6h1v1h-1zm-1 4h1v1h-1zm-1 4h1v1h-1zm-3 13h1v1h-1zm-1 4h1v1h-1zm-1 4h1v1h-1zm-1 5h1v1h-1zm-1 4h1v1h-1zm-2 9h1v1h-1zm-1 3h1v1h-1zm-1 5h1v1h-1zm-1 4h1v1h-1zm-2 9h1v1h-1zm-1 4h1v1h-1zm-1 4h1v1h-1zm-1 4h1v1h-1zm-1 4h1v1h-1zm-1 5h1v1h-1zm-1 4h1v1h-1zm-3 13h1v1h-1zm-1 4h1v1h-1zm-1 4h1v1h-1z"/>
		<path id="Path 67" class="s26" d="m293 240h1v1h-1zm6 11h1v1h-1zm6 6h1v1h-1zm3 2h1v1h-1zm3 2h1v1h-1zm2 1h1v1h-1zm5 3h1v1h-1zm7 4h1v1h-1zm2 1h1v1h-1zm5 3h1v1h-1zm3 2h1v1h-1zm6 6h1v1h-1zm3 6h1v1h-1zm-4 16h1v1h-1zm-10 10h1v1h-1zm-1 1h1v1h-1zm-1 1h1v1h-1zm-1 1h1v1h-1zm-1 1h1v1h-1zm-1 1h1v1h-1zm-2 2h1v1h-1zm-1 1h1v1h-1zm-1 1h1v1h-1zm-8 7h1v1h-1zm-1 1h1v1h-1zm-1 1h1v1h-1zm-2 2h1v1h-1zm-1 1h1v1h-1zm-2 2h1v1h-1zm-12 11h1v1h-1zm-1 1h1v1h-1zm-1 1h1v1h-1zm-1 1h1v1h-1zm-1 1h1v1h-1zm-1 1h1v1h-1zm-1 1h1v1h-1zm-1 1h1v1h-1zm-1 1h1v1h-1zm-1 1h1v1h-1zm-1 1h1v1h-1zm-1 1h1v1h-1zm-5 4h1v1h-1zm-1 1h1v1h-1zm-1 1h1v1h-1zm-1 1h1v1h-1zm-1 1h1v1h-1zm-1 1h1v1h-1zm-1 1h1v1h-1zm-1 1h1v1h-1zm-1 1h1v1h-1zm-1 1h1v1h-1zm-1 1h1v1h-1zm-13 12h1v1h-1zm-3 3h1v1h-1zm-1 1h1v1h-1zm-1 1h1v1h-1zm-1 1h1v1h-1zm-1 1h1v1h-1zm-9 8h1v1h-1zm-1 1h1v1h-1zm-2 2h1v1h-1zm-1 1h1v1h-1zm-1 1h1v1h-1zm-1 1h1v1h-1zm-1 1h1v1h-1zm-1 1h1v1h-1zm-1 1h1v1h-1zm-34 32h1v1h-1zm-1 1h1v1h-1zm-1 1h1v1h-1zm-1 1h1v1h-1z"/>
		<path id="Path 68" class="s27" d="m260 135h1v1h-1zm-102 97h1v1h-1zm-2 3h1v1h-1zm30 43h1v1h-1zm-2 106h1v1h-1zm7 1h1v1h-1zm-11 45h1v1h-1zm-6 7h1v1h-1zm-4 16h1v1h-1zm4 0h1v1h-1zm-1 1h1v1h-1z"/>
		<path id="Path 69" class="s28" d="m312 128h1v1h-1zm-7 30h1v1h-1zm-12 49h1v1h-1zm2 38h1v1h-1zm3 5h1v1h-1zm8 8h1v1h-1zm3 2h1v1h-1zm7 4h1v1h-1zm20 12h1v1h-1zm4 4h1v1h-1zm3 5h1v1h-1zm0 12h1v1h-1zm-4 7h1v1h-1zm-1 1h1v1h-1zm-1 1h1v1h-1zm-1 1h1v1h-1zm-1 1h1v1h-1zm-1 1h1v1h-1zm-1 1h1v1h-1zm-1 1h1v1h-1zm-1 1h1v1h-1zm-17 16h1v1h-1zm-17 16h1v1h-1zm-1 1h1v1h-1zm-1 1h1v1h-1zm-16 15h1v1h-1zm-18 17h1v1h-1zm-1 1h1v1h-1zm-1 1h1v1h-1zm-1 1h1v1h-1zm-1 1h1v1h-1zm-1 1h1v1h-1zm-2 2h1v1h-1zm-1 1h1v1h-1zm-9 8h1v1h-1zm-1 1h1v1h-1zm-1 1h1v1h-1zm-1 1h1v1h-1zm-1 1h1v1h-1zm-3 3h1v1h-1zm-12 11h1v1h-1zm-1 1h1v1h-1zm-1 1h1v1h-1zm-1 1h1v1h-1zm-1 1h1v1h-1zm-1 1h1v1h-1zm-1 1h1v1h-1zm-1 1h1v1h-1zm-1 1h1v1h-1zm-1 1h1v1h-1zm-1 1h1v1h-1zm-1 1h1v1h-1zm-1 1h1v1h-1zm-6 5h1v1h-1zm-1 1h1v1h-1zm-1 1h1v1h-1zm-1 1h1v1h-1zm-1 1h1v1h-1zm-1 1h1v1h-1zm-1 1h1v1h-1zm-1 1h1v1h-1zm-1 1h1v1h-1zm-1 1h1v1h-1zm-1 1h1v1h-1zm-9 8h1v1h-1zm-1 1h1v1h-1zm-1 1h1v1h-1zm-1 1h1v1h-1zm-1 1h1v1h-1zm-1 1h1v1h-1zm-1 1h1v1h-1zm-3 2h1v1h-1z"/>
		<path id="Path 70" class="s29" d="m148 250h1v1h-1zm1 2h1v1h-1zm1 2h1v1h-1zm6 6h1v1h-1zm3 2h1v1h-1zm14 8h1v1h-1zm5 3h1v1h-1zm5 3h1v1h-1zm10 9h1v1h-1zm8 19h1v1h-1z"/>
		<path id="Path 71" class="s30" d="m311 81h1v1h-1zm-5 4h1v1h-1zm-1 1h1v1h-1zm-18 17h1v1h-1zm-1 1h1v1h-1zm-1 1h1v1h-1zm-15 14h1v1h-1zm-19 18h1v1h-1zm-16 15h1v1h-1zm-1 1h1v1h-1zm-19 18h1v1h-1zm-1 1h1v1h-1zm-1 1h1v1h-1zm-1 1h1v1h-1zm-1 1h1v1h-1zm-1 1h1v1h-1zm-1 1h1v1h-1zm-1 1h1v1h-1zm-1 1h1v1h-1zm-8 7h1v1h-1zm-1 1h1v1h-1zm-1 1h1v1h-1zm-1 1h1v1h-1zm-1 1h1v1h-1zm-1 1h1v1h-1zm-1 1h1v1h-1zm-1 1h1v1h-1zm-1 1h1v1h-1zm-1 1h1v1h-1zm-1 1h1v1h-1zm-9 8h1v1h-1zm-2 2h1v1h-1zm-1 1h1v1h-1zm-1 1h1v1h-1zm-1 1h1v1h-1zm-1 1h1v1h-1zm-1 1h1v1h-1zm-1 1h1v1h-1zm-1 1h1v1h-1zm-9 8h1v1h-1zm-1 1h1v1h-1zm-1 1h1v1h-1zm-1 1h1v1h-1zm-1 1h1v1h-1zm-1 1h1v1h-1zm-1 1h1v1h-1zm-1 1h1v1h-1zm-1 1h1v1h-1zm-1 1h1v1h-1zm-1 1h1v1h-1zm-2 3h1v1h-1zm-1 1h1v1h-1zm-1 3h1v1h-1zm48 96h1v1h-1zm-1 4h1v1h-1zm-6 26h1v1h-1zm-13 55h1v1h-1zm-1 4h1v1h-1zm-4 17h1v1h-1zm-1 4h1v1h-1z"/>
		<path id="Path 72" class="s32" d="m324 268h1v1h-1z"/>
		<path id="Path 73" class="s33" d="m255 134h1v1h-1zm-16 15h1v1h-1zm-1 1h1v1h-1zm-36 34h1v1h-1zm-19 18h1v1h-1zm-21 62h1v1h-1zm2 1h1v1h-1zm7 4h1v1h-1zm16 10h1v1h-1zm11 15h1v1h-1z"/>
		<path id="Path 74" class="s34" d="m290 249h1v1h-1zm4 5h1v1h-1zm1 1h1v1h-1zm1 1h1v1h-1zm6 4h1v1h-1zm27 16h1v1h-1zm1 1h1v1h-1zm1 1h1v1h-1zm1 1h1v1h-1zm3 20h1v1h-1zm-1 2h1v1h-1zm-3 4h1v1h-1zm-1 1h1v1h-1zm-1 1h1v1h-1zm-1 1h1v1h-1zm-1 1h1v1h-1zm-1 1h1v1h-1zm-16 15h1v1h-1zm-2 2h1v1h-1zm-14 13h1v1h-1zm-1 1h1v1h-1zm-1 1h1v1h-1zm-1 1h1v1h-1zm-1 1h1v1h-1zm-1 1h1v1h-1zm-1 1h1v1h-1zm-14 13h1v1h-1zm-1 1h1v1h-1zm-1 1h1v1h-1zm-4 3h1v1h-1zm-10 10h1v1h-1zm-2 2h1v1h-1zm-1 1h1v1h-1zm-1 1h1v1h-1zm-1 1h1v1h-1zm-14 13h1v1h-1zm-1 1h1v1h-1zm-1 1h1v1h-1zm-17 16h1v1h-1zm-1 1h1v1h-1zm-1 1h1v1h-1zm-1 1h1v1h-1zm-15 14h1v1h-1zm-1 1h1v1h-1zm-18 17h1v1h-1zm-1 1h1v1h-1zm-3 3h1v1h-1z"/>
		<path id="Path 75" class="s35" d="m310 82h1v1h-1zm-6 5h1v1h-1zm-1 1h1v1h-1zm-1 1h1v1h-1zm-1 1h1v1h-1zm-1 1h1v1h-1zm-1 1h1v1h-1zm-1 1h1v1h-1zm-1 1h1v1h-1zm-1 1h1v1h-1zm-1 1h1v1h-1zm-1 1h1v1h-1zm-1 1h1v1h-1zm-9 8h1v1h-1zm-2 2h1v1h-1zm-1 1h1v1h-1zm-1 1h1v1h-1zm-1 1h1v1h-1zm-1 1h1v1h-1zm-1 1h1v1h-1zm-1 1h1v1h-1zm-17 16h1v1h-1zm-1 1h1v1h-1zm-1 1h1v1h-1zm-1 1h1v1h-1zm-33 31h1v1h-1zm-1 1h1v1h-1zm-1 1h1v1h-1zm-1 1h1v1h-1zm-1 1h1v1h-1zm-16 15h1v1h-1zm-18 17h1v1h-1zm-1 1h1v1h-1zm-2 2h1v1h-1zm-14 13h1v1h-1zm-1 1h1v1h-1zm-1 1h1v1h-1zm-15 38h1v1h-1zm1 1h1v1h-1zm1 1h1v1h-1zm4 3h1v1h-1zm3 2h1v1h-1zm7 4h1v1h-1zm2 1h1v1h-1zm5 3h1v1h-1zm2 1h1v1h-1zm3 2h1v1h-1zm2 1h1v1h-1zm3 2h1v1h-1zm4 3h1v1h-1zm1 1h1v1h-1zm1 1h1v1h-1zm1 1h1v1h-1zm1 1h1v1h-1zm3 4h1v1h-1zm1 2h1v1h-1zm1 2h1v1h-1zm2 5h1v1h-1z"/>
		<path id="Path 76" class="s36" d="m298 100h1v1h-1zm-1 1h1v1h-1zm-15 14h1v1h-1zm-1 1h1v1h-1zm-1 1h1v1h-1zm-18 17h1v1h-1zm-16 15h1v1h-1zm-1 1h1v1h-1zm-19 18h1v1h-1zm-1 1h1v1h-1zm-15 14h1v1h-1zm-1 1h1v1h-1zm-1 1h1v1h-1zm-35 33h1v1h-1zm-1 1h1v1h-1zm-1 1h1v1h-1zm-2 44h1v1h-1zm7 4h1v1h-1zm2 1h1v1h-1zm5 3h1v1h-1zm2 1h1v1h-1zm5 3h1v1h-1zm4 3h1v1h-1zm6 6h1v1h-1z"/>
		<path id="Path 77" class="s37" d="m313 85h1v1h-1zm-18 17h1v1h-1zm-17 16h1v1h-1zm-1 1h1v1h-1zm-18 17h1v1h-1zm-16 15h1v1h-1zm-20 19h1v1h-1zm-17 16h1v1h-1zm-19 18h1v1h-1zm-2 2h1v1h-1zm-1 1h1v1h-1zm-1 1h1v1h-1zm-14 13h1v1h-1zm-1 1h1v1h-1zm-3 3h1v1h-1zm-5 5h1v1h-1zm-1 1h1v1h-1zm47 91h1v1h-1zm-1 4h1v1h-1zm-1 4h1v1h-1zm-1 4h1v1h-1zm-1 4h1v1h-1zm-1 5h1v1h-1zm-2 8h1v1h-1zm-2 9h1v1h-1zm-1 4h1v1h-1zm-1 4h1v1h-1zm-1 4h1v1h-1zm-4 17h1v1h-1zm-2 9h1v1h-1zm-2 8h1v1h-1zm-1 4h1v1h-1zm-1 5h1v1h-1zm-1 4h1v1h-1zm-1 4h1v1h-1zm-4 17h1v1h-1zm-1 4h1v1h-1z"/>
		<path id="Path 78" class="s38" d="m285 238h1v1h-1zm2 5h1v1h-1zm1 2h1v1h-1zm1 2h1v1h-1zm2 3h1v1h-1zm8 8h1v1h-1zm10 6h1v1h-1zm2 1h1v1h-1zm5 3h1v1h-1zm2 1h1v1h-1zm7 4h1v1h-1zm3 2h1v1h-1zm5 5h1v1h-1zm1 1h1v1h-1zm1 2h1v1h-1zm1 2h1v1h-1zm-4 19h1v1h-1zm-7 7h1v1h-1zm-1 1h1v1h-1zm-15 14h1v1h-1zm-2 2h1v1h-1zm-21 20h1v1h-1zm-34 32h1v1h-1zm-1 1h1v1h-1zm-1 1h1v1h-1zm-1 1h1v1h-1zm-1 1h1v1h-1zm-1 1h1v1h-1zm-1 1h1v1h-1zm-1 1h1v1h-1zm-1 1h1v1h-1zm-1 1h1v1h-1zm-1 1h1v1h-1zm-6 5h1v1h-1zm-1 1h1v1h-1zm-1 1h1v1h-1zm-1 1h1v1h-1zm-1 1h1v1h-1zm-2 2h1v1h-1zm-14 13h1v1h-1zm-1 1h1v1h-1zm-1 1h1v1h-1zm-1 1h1v1h-1zm-1 1h1v1h-1zm-1 1h1v1h-1zm-1 1h1v1h-1zm-1 1h1v1h-1zm-1 1h1v1h-1zm-1 1h1v1h-1zm-7 6h1v1h-1zm-1 1h1v1h-1zm-1 1h1v1h-1zm-1 1h1v1h-1zm-1 1h1v1h-1zm-1 1h1v1h-1zm-1 1h1v1h-1zm-1 1h1v1h-1zm-1 1h1v1h-1zm-1 1h1v1h-1zm-1 1h1v1h-1zm-9 8h1v1h-1zm-1 1h1v1h-1z"/>
		<path id="Path 79" class="s39" d="m158 255h1v1h-1zm4 4h1v1h-1zm13 8h1v1h-1zm5 3h1v1h-1zm2 1h1v1h-1zm5 3h1v1h-1zm6 4h1v1h-1zm8 8h1v1h-1zm2 3h1v1h-1zm1 2h1v1h-1zm1 2h1v1h-1zm1 3h1v1h-1z"/>
		<path id="Path 80" class="s40" d="m312 86h1v1h-1zm-18 17h1v1h-1zm-1 1h1v1h-1zm-1 1h1v1h-1zm-34 32h1v1h-1zm-1 1h1v1h-1zm-1 1h1v1h-1zm-3 3h1v1h-1zm-3 3h1v1h-1zm-8 7h1v1h-1zm-1 1h1v1h-1zm-1 1h1v1h-1zm-1 1h1v1h-1zm-1 1h1v1h-1zm-1 1h1v1h-1zm-1 1h1v1h-1zm-1 1h1v1h-1zm-1 1h1v1h-1zm-1 1h1v1h-1zm-1 1h1v1h-1zm-1 1h1v1h-1zm-9 8h1v1h-1zm-1 1h1v1h-1zm-1 1h1v1h-1zm-1 1h1v1h-1zm-1 1h1v1h-1zm-1 1h1v1h-1zm-1 1h1v1h-1zm-1 1h1v1h-1zm-1 1h1v1h-1zm-1 1h1v1h-1zm-1 1h1v1h-1zm-1 1h1v1h-1zm-6 5h1v1h-1zm-1 1h1v1h-1zm-1 1h1v1h-1zm-1 1h1v1h-1zm-1 1h1v1h-1zm-1 1h1v1h-1zm-1 1h1v1h-1zm-1 1h1v1h-1zm-1 1h1v1h-1zm-1 1h1v1h-1zm-1 1h1v1h-1zm-1 1h1v1h-1zm-12 11h1v1h-1zm-1 1h1v1h-1zm-1 1h1v1h-1zm-1 1h1v1h-1zm-1 1h1v1h-1zm-2 2h1v1h-1zm-9 8h1v1h-1zm-1 1h1v1h-1zm-2 2h1v1h-1zm-1 1h1v1h-1zm-1 1h1v1h-1zm-1 1h1v1h-1zm-4 5h1v1h-1zm-2 4h1v1h-1zm-1 3h1v1h-1zm46 106h1v1h-1zm-2 9h1v1h-1zm-5 21h1v1h-1zm-1 4h1v1h-1zm-3 13h1v1h-1zm-2 8h1v1h-1zm-6 26h1v1h-1z"/>
		<path id="Path 81" class="s41" d="m311 87h1v1h-1zm-1 1h1v1h-1zm-1 1h1v1h-1zm-1 1h1v1h-1zm-1 1h1v1h-1zm-1 1h1v1h-1zm-1 1h1v1h-1zm-1 1h1v1h-1zm-1 1h1v1h-1zm-1 1h1v1h-1zm-1 1h1v1h-1zm-1 1h1v1h-1zm-1 1h1v1h-1zm-8 7h1v1h-1zm-1 1h1v1h-1zm-2 2h1v1h-1zm-1 1h1v1h-1zm-1 1h1v1h-1zm-1 1h1v1h-1zm-1 1h1v1h-1zm-1 1h1v1h-1zm-7 6h1v1h-1zm-1 1h1v1h-1zm-1 1h1v1h-1zm-1 1h1v1h-1zm-1 1h1v1h-1zm-1 1h1v1h-1zm-1 1h1v1h-1zm-1 1h1v1h-1zm-1 1h1v1h-1zm-1 1h1v1h-1zm-1 1h1v1h-1zm-1 1h1v1h-1zm-1 1h1v1h-1zm-1 1h1v1h-1zm-8 7h1v1h-1zm-1 1h1v1h-1zm-2 2h1v1h-1zm-1 1h1v1h-1zm-2 2h1v1h-1zm-1 1h1v1h-1zm-1 1h1v1h-1zm-17 16h1v1h-1zm-1 1h1v1h-1zm-1 1h1v1h-1zm-1 1h1v1h-1zm-34 32h1v1h-1zm-1 1h1v1h-1zm-1 1h1v1h-1zm-1 1h1v1h-1zm-1 1h1v1h-1zm-12 11h1v1h-1zm-2 2h1v1h-1zm-1 1h1v1h-1zm-2 49h1v1h-1zm23 14h1v1h-1zm1 1h1v1h-1zm1 1h1v1h-1zm1 1h1v1h-1zm1 1h1v1h-1zm3 4h1v1h-1z"/>
		<path id="Path 82" class="s42" d="m312 96h1v1h-1zm-2 9h1v1h-1zm-1 4h1v1h-1zm-2 9h1v1h-1zm-1 4h1v1h-1zm-1 5h1v1h-1zm-1 3h1v1h-1zm-6 26h1v1h-1zm-1 4h1v1h-1zm-1 4h1v1h-1zm-1 4h1v1h-1zm-1 4h1v1h-1zm-1 5h1v1h-1zm-1 4h1v1h-1zm-2 9h1v1h-1zm-1 4h1v1h-1zm-1 4h1v1h-1zm-1 4h1v1h-1zm-1 4h1v1h-1zm-1 5h1v1h-1zm-1 4h1v1h-1zm-1 5h1v1h-1zm53 76h1v1h-1zm-3 6h1v1h-1zm-13 13h1v1h-1zm-1 1h1v1h-1zm-1 1h1v1h-1zm-1 1h1v1h-1zm-1 1h1v1h-1zm-1 1h1v1h-1zm-1 1h1v1h-1zm-1 1h1v1h-1zm-1 1h1v1h-1zm-1 1h1v1h-1zm-7 6h1v1h-1zm-1 1h1v1h-1zm-1 1h1v1h-1zm-1 1h1v1h-1zm-1 1h1v1h-1zm-1 1h1v1h-1zm-1 1h1v1h-1zm-1 1h1v1h-1zm-1 1h1v1h-1zm-1 1h1v1h-1zm-12 11h1v1h-1zm-3 3h1v1h-1zm-1 1h1v1h-1zm-1 1h1v1h-1zm-1 1h1v1h-1zm-1 1h1v1h-1zm-1 1h1v1h-1zm-9 8h1v1h-1zm-1 1h1v1h-1zm-2 2h1v1h-1zm-2 2h1v1h-1zm-1 1h1v1h-1zm-1 1h1v1h-1zm-2 2h1v1h-1zm-17 16h1v1h-1zm-13 12h1v1h-1zm-1 1h1v1h-1zm-1 1h1v1h-1zm-1 1h1v1h-1zm-1 1h1v1h-1zm-1 1h1v1h-1zm-1 1h1v1h-1zm-16 15h1v1h-1zm-1 1h1v1h-1zm-1 1h1v1h-1zm-16 15h1v1h-1zm-1 1h1v1h-1zm-1 1h1v1h-1zm-1 1h1v1h-1z"/>
		<path id="Path 83" class="s43" d="m284 234h1v1h-1zm2 6h1v1h-1zm7 12h1v1h-1zm15 11h1v1h-1zm5 3h1v1h-1zm2 1h1v1h-1zm7 4h1v1h-1zm5 3h1v1h-1zm-139 166h1v1h-1z"/>
		<path id="Path 84" class="s44" d="m283 107h1v1h-1zm-14 13h1v1h-1zm-1 1h1v1h-1zm-1 1h1v1h-1zm-1 1h1v1h-1zm-1 1h1v1h-1zm-1 1h1v1h-1zm-1 1h1v1h-1zm-1 1h1v1h-1zm-1 1h1v1h-1zm-1 1h1v1h-1zm-10 9h1v1h-1zm-1 1h1v1h-1zm-1 1h1v1h-1zm-1 1h1v1h-1zm-1 1h1v1h-1zm-1 1h1v1h-1zm-1 1h1v1h-1zm-1 1h1v1h-1zm-1 1h1v1h-1zm-1 1h1v1h-1zm-1 1h1v1h-1zm-7 6h1v1h-1zm-1 1h1v1h-1zm-1 1h1v1h-1zm-1 1h1v1h-1zm-1 1h1v1h-1zm-1 1h1v1h-1zm-1 1h1v1h-1zm-1 1h1v1h-1zm-1 1h1v1h-1zm-1 1h1v1h-1zm-18 17h1v1h-1zm-1 1h1v1h-1zm-1 1h1v1h-1zm-16 15h1v1h-1zm-1 1h1v1h-1zm-1 1h1v1h-1zm-16 15h1v1h-1zm-1 1h1v1h-1zm-15 44h1v1h-1zm11 7h1v1h-1zm29 21h1v1h-1z"/>
		<path id="Path 85" class="s45" d="m292 251h1v1h-1zm6 6h1v1h-1zm3 2h1v1h-1zm3 2h1v1h-1zm2 1h1v1h-1zm14 8h1v1h-1zm3 43h1v1h-1zm-1 1h1v1h-1zm-16 15h1v1h-1zm-19 18h1v1h-1zm-2 2h1v1h-1zm-3 3h1v1h-1zm-11 10h1v1h-1zm-1 1h1v1h-1zm-39 37h1v1h-1zm-2 2h1v1h-1z"/>
		<path id="Path 86" fill-rule="evenodd" class="s46" d="m264 193l3 7-2 2zm-38 42l3 4v15l-3 5zm-71 13h1v1h-1zm125 1l6 10v8h3v11l-9-4zm-124 2h1v1h-1zm1 2h1v1h-1zm2 3h1v1h-1zm1 1h1v1h-1zm4 3h1v1h-1zm1 1h1v1h-1zm2 1h1v1h-1zm22 13h1v1h-1zm3 2h1v1h-1zm15 21h1v1h-1zm86 17l5 4v12l-3 4-42 36h-9v3l-6 1 3-12-2 2-2-8 5-12-1-5 12-6 9 3 1-6 8-2v-3l9-1v-8l11-3zm0-1h1v1h-1z"/>
		<path id="Path 87" fill-rule="evenodd" class="s47" d="m303 134h1v1h-1zm21 138h1v1h-1zm-31 43l-2-1h2z"/>
	</g>
</svg>